<svg xmlns="http://www.w3.org/2000/svg" width="1200" height="850" viewBox="0 0 1200 850">
<rect width="1200" height="850" fill="#FFF8EA"/>
<g font-family="Segoe UI, sans-serif" fill="#243F3B">
<text x="40" y="44" font-size="26" font-weight="700">Winter House Party · original sound bank</text>
<text x="40" y="72" font-size="16">44.1 kHz mono PCM · −4.5 dBFS peak target · raw waveform, 0–450 ms per row</text>
<text x="40" y="120" font-size="20" font-weight="700">bell-01</text>
<text x="40" y="147" font-size="12">340 ms</text>
<line x1="205" x2="1160" y1="138" y2="138" stroke="#D8D2C3"/>
<path d="M205.00,137.94V138.93" stroke="#B48022"/>
<path d="M207.12,135.22V143.62" stroke="#B48022"/>
<path d="M209.23,127.42V144.58" stroke="#B48022"/>
<path d="M211.35,119.95V154.29" stroke="#B48022"/>
<path d="M213.47,112.93V162.54" stroke="#B48022"/>
<path d="M215.59,107.65V165.48" stroke="#B48022"/>
<path d="M217.70,109.54V168.44" stroke="#B48022"/>
<path d="M219.82,108.37V169.57" stroke="#B48022"/>
<path d="M221.94,110.83V168.12" stroke="#B48022"/>
<path d="M224.06,109.52V166.65" stroke="#B48022"/>
<path d="M226.17,108.63V167.21" stroke="#B48022"/>
<path d="M228.29,109.72V168.88" stroke="#B48022"/>
<path d="M230.41,112.60V169.18" stroke="#B48022"/>
<path d="M232.53,111.47V167.64" stroke="#B48022"/>
<path d="M234.64,111.24V166.56" stroke="#B48022"/>
<path d="M236.76,110.54V168.28" stroke="#B48022"/>
<path d="M238.88,111.02V168.26" stroke="#B48022"/>
<path d="M241.00,112.84V166.55" stroke="#B48022"/>
<path d="M243.11,113.99V166.95" stroke="#B48022"/>
<path d="M245.23,111.96V165.74" stroke="#B48022"/>
<path d="M247.35,111.87V167.23" stroke="#B48022"/>
<path d="M249.47,113.60V167.83" stroke="#B48022"/>
<path d="M251.58,114.07V166.70" stroke="#B48022"/>
<path d="M253.70,115.20V165.45" stroke="#B48022"/>
<path d="M255.82,113.19V166.87" stroke="#B48022"/>
<path d="M257.94,113.13V167.53" stroke="#B48022"/>
<path d="M260.05,114.58V166.38" stroke="#B48022"/>
<path d="M262.17,116.04V166.19" stroke="#B48022"/>
<path d="M264.29,114.97V165.03" stroke="#B48022"/>
<path d="M266.40,114.55V166.48" stroke="#B48022"/>
<path d="M268.52,116.46V166.65" stroke="#B48022"/>
<path d="M270.64,114.30V165.33" stroke="#B48022"/>
<path d="M272.76,115.75V164.18" stroke="#B48022"/>
<path d="M274.87,116.77V165.39" stroke="#B48022"/>
<path d="M276.99,114.81V164.22" stroke="#B48022"/>
<path d="M279.11,114.52V165.58" stroke="#B48022"/>
<path d="M281.23,115.91V164.20" stroke="#B48022"/>
<path d="M283.34,117.10V163.08" stroke="#B48022"/>
<path d="M285.46,116.14V164.22" stroke="#B48022"/>
<path d="M287.58,115.43V164.70" stroke="#B48022"/>
<path d="M289.70,115.10V163.51" stroke="#B48022"/>
<path d="M291.81,115.91V162.27" stroke="#B48022"/>
<path d="M293.93,117.67V163.46" stroke="#B48022"/>
<path d="M296.05,116.27V163.30" stroke="#B48022"/>
<path d="M298.17,115.18V163.88" stroke="#B48022"/>
<path d="M300.28,115.62V162.78" stroke="#B48022"/>
<path d="M302.40,116.68V161.46" stroke="#B48022"/>
<path d="M304.52,117.14V162.50" stroke="#B48022"/>
<path d="M306.64,116.34V162.82" stroke="#B48022"/>
<path d="M308.75,115.20V161.52" stroke="#B48022"/>
<path d="M310.87,115.74V160.28" stroke="#B48022"/>
<path d="M312.99,117.18V159.60" stroke="#B48022"/>
<path d="M315.11,116.47V161.16" stroke="#B48022"/>
<path d="M317.22,115.59V161.45" stroke="#B48022"/>
<path d="M319.34,117.17V160.26" stroke="#B48022"/>
<path d="M321.46,116.11V158.96" stroke="#B48022"/>
<path d="M323.57,117.56V159.76" stroke="#B48022"/>
<path d="M325.69,117.02V160.21" stroke="#B48022"/>
<path d="M327.81,116.11V159.40" stroke="#B48022"/>
<path d="M329.93,116.43V158.55" stroke="#B48022"/>
<path d="M332.04,117.65V158.02" stroke="#B48022"/>
<path d="M334.16,117.46V158.67" stroke="#B48022"/>
<path d="M336.28,116.41V159.20" stroke="#B48022"/>
<path d="M338.40,116.55V158.41" stroke="#B48022"/>
<path d="M340.51,116.63V157.03" stroke="#B48022"/>
<path d="M342.63,117.76V157.47" stroke="#B48022"/>
<path d="M344.75,117.64V157.97" stroke="#B48022"/>
<path d="M346.87,116.79V155.84" stroke="#B48022"/>
<path d="M348.98,117.03V157.15" stroke="#B48022"/>
<path d="M351.10,118.21V155.82" stroke="#B48022"/>
<path d="M353.22,118.12V156.07" stroke="#B48022"/>
<path d="M355.34,119.56V156.58" stroke="#B48022"/>
<path d="M357.45,117.40V156.18" stroke="#B48022"/>
<path d="M359.57,117.70V155.03" stroke="#B48022"/>
<path d="M361.69,118.78V154.87" stroke="#B48022"/>
<path d="M363.81,118.82V155.39" stroke="#B48022"/>
<path d="M365.92,118.13V155.57" stroke="#B48022"/>
<path d="M368.04,118.34V155.45" stroke="#B48022"/>
<path d="M370.16,119.30V154.39" stroke="#B48022"/>
<path d="M372.28,120.19V153.97" stroke="#B48022"/>
<path d="M374.39,119.41V154.65" stroke="#B48022"/>
<path d="M376.51,118.74V154.62" stroke="#B48022"/>
<path d="M378.63,118.88V153.74" stroke="#B48022"/>
<path d="M380.75,119.80V153.04" stroke="#B48022"/>
<path d="M382.86,119.94V153.05" stroke="#B48022"/>
<path d="M384.98,119.37V153.66" stroke="#B48022"/>
<path d="M387.10,119.57V153.88" stroke="#B48022"/>
<path d="M389.21,121.45V152.38" stroke="#B48022"/>
<path d="M391.33,117.63V159.20" stroke="#B48022"/>
<path d="M393.45,120.02V149.23" stroke="#B48022"/>
<path d="M395.57,114.52V162.34" stroke="#B48022"/>
<path d="M397.68,118.44V153.06" stroke="#B48022"/>
<path d="M399.80,114.90V152.78" stroke="#B48022"/>
<path d="M401.92,116.85V163.33" stroke="#B48022"/>
<path d="M404.04,115.20V149.94" stroke="#B48022"/>
<path d="M406.15,117.04V164.44" stroke="#B48022"/>
<path d="M408.27,123.53V151.15" stroke="#B48022"/>
<path d="M410.39,114.44V163.31" stroke="#B48022"/>
<path d="M412.51,117.71V149.79" stroke="#B48022"/>
<path d="M414.62,115.97V162.44" stroke="#B48022"/>
<path d="M416.74,117.74V162.18" stroke="#B48022"/>
<path d="M418.86,117.82V147.41" stroke="#B48022"/>
<path d="M420.98,116.82V162.82" stroke="#B48022"/>
<path d="M423.09,120.43V149.00" stroke="#B48022"/>
<path d="M425.21,117.13V163.50" stroke="#B48022"/>
<path d="M427.33,117.07V149.60" stroke="#B48022"/>
<path d="M429.45,117.58V162.40" stroke="#B48022"/>
<path d="M431.56,117.92V148.11" stroke="#B48022"/>
<path d="M433.68,119.32V156.79" stroke="#B48022"/>
<path d="M435.80,117.72V161.56" stroke="#B48022"/>
<path d="M437.92,120.89V147.11" stroke="#B48022"/>
<path d="M440.03,117.32V161.51" stroke="#B48022"/>
<path d="M442.15,131.10V148.10" stroke="#B48022"/>
<path d="M444.27,120.96V161.93" stroke="#B48022"/>
<path d="M446.38,117.62V147.78" stroke="#B48022"/>
<path d="M448.50,120.74V160.85" stroke="#B48022"/>
<path d="M450.62,118.52V156.80" stroke="#B48022"/>
<path d="M452.74,122.67V145.59" stroke="#B48022"/>
<path d="M454.85,118.06V160.13" stroke="#B48022"/>
<path d="M456.97,123.52V145.88" stroke="#B48022"/>
<path d="M459.09,117.86V160.12" stroke="#B48022"/>
<path d="M461.21,120.71V146.55" stroke="#B48022"/>
<path d="M463.32,122.34V160.06" stroke="#B48022"/>
<path d="M465.44,118.35V145.82" stroke="#B48022"/>
<path d="M467.56,122.93V158.37" stroke="#B48022"/>
<path d="M469.68,119.40V158.97" stroke="#B48022"/>
<path d="M471.79,123.45V145.31" stroke="#B48022"/>
<path d="M473.91,118.92V158.33" stroke="#B48022"/>
<path d="M476.03,129.99V145.51" stroke="#B48022"/>
<path d="M478.15,121.10V158.54" stroke="#B48022"/>
<path d="M480.26,118.98V145.92" stroke="#B48022"/>
<path d="M482.38,123.03V158.17" stroke="#B48022"/>
<path d="M484.50,119.48V150.56" stroke="#B48022"/>
<path d="M486.62,123.85V145.79" stroke="#B48022"/>
<path d="M488.73,120.61V157.01" stroke="#B48022"/>
<path d="M490.85,124.79V146.27" stroke="#B48022"/>
<path d="M492.97,120.30V156.46" stroke="#B48022"/>
<path d="M495.09,127.34V146.44" stroke="#B48022"/>
<path d="M497.20,123.35V156.78" stroke="#B48022"/>
<path d="M499.32,120.51V146.57" stroke="#B48022"/>
<path d="M501.44,123.56V156.17" stroke="#B48022"/>
<path d="M503.55,120.92V155.80" stroke="#B48022"/>
<path d="M505.67,124.49V145.05" stroke="#B48022"/>
<path d="M507.79,121.99V155.27" stroke="#B48022"/>
<path d="M509.91,130.74V146.93" stroke="#B48022"/>
<path d="M512.02,121.81V154.85" stroke="#B48022"/>
<path d="M514.14,121.86V146.96" stroke="#B48022"/>
<path d="M516.26,124.08V155.12" stroke="#B48022"/>
<path d="M518.38,122.17V146.97" stroke="#B48022"/>
<path d="M520.49,124.38V149.69" stroke="#B48022"/>
<path d="M522.61,122.67V154.35" stroke="#B48022"/>
<path d="M524.73,125.33V146.60" stroke="#B48022"/>
<path d="M526.85,123.50V153.86" stroke="#B48022"/>
<path d="M528.96,131.07V147.31" stroke="#B48022"/>
<path d="M531.08,125.07V153.71" stroke="#B48022"/>
<path d="M533.20,123.27V147.33" stroke="#B48022"/>
<path d="M535.32,125.24V153.80" stroke="#B48022"/>
<path d="M537.43,123.75V153.07" stroke="#B48022"/>
<path d="M539.55,125.58V141.96" stroke="#B48022"/>
<path d="M541.67,124.31V152.98" stroke="#B48022"/>
<path d="M543.79,128.75V146.70" stroke="#B48022"/>
<path d="M545.90,124.83V152.88" stroke="#B48022"/>
<path d="M548.02,125.38V147.20" stroke="#B48022"/>
<path d="M550.14,126.41V152.74" stroke="#B48022"/>
<path d="M552.26,124.56V147.18" stroke="#B48022"/>
<path d="M554.37,126.71V149.79" stroke="#B48022"/>
<path d="M556.49,125.13V152.65" stroke="#B48022"/>
<path d="M558.61,127.06V145.92" stroke="#B48022"/>
<path d="M560.72,125.58V151.91" stroke="#B48022"/>
<path d="M562.84,134.04V146.54" stroke="#B48022"/>
<path d="M564.96,127.85V151.93" stroke="#B48022"/>
<path d="M567.08,125.62V146.79" stroke="#B48022"/>
<path d="M569.19,127.81V151.80" stroke="#B48022"/>
<path d="M571.31,125.54V149.33" stroke="#B48022"/>
<path d="M573.43,128.19V140.57" stroke="#B48022"/>
<path d="M575.55,126.00V151.59" stroke="#B48022"/>
<path d="M577.66,128.73V146.43" stroke="#B48022"/>
<path d="M579.78,126.22V150.95" stroke="#B48022"/>
<path d="M581.90,127.25V146.13" stroke="#B48022"/>
<path d="M584.02,129.39V150.93" stroke="#B48022"/>
<path d="M586.13,126.07V146.25" stroke="#B48022"/>
<path d="M588.25,129.36V149.79" stroke="#B48022"/>
<path d="M590.37,126.13V150.79" stroke="#B48022"/>
<path d="M592.49,129.74V143.80" stroke="#B48022"/>
<path d="M594.60,126.45V150.49" stroke="#B48022"/>
<path d="M596.72,133.73V145.73" stroke="#B48022"/>
<path d="M598.84,127.65V149.98" stroke="#B48022"/>
<path d="M600.96,126.53V145.57" stroke="#B48022"/>
<path d="M603.07,130.81V149.90" stroke="#B48022"/>
<path d="M605.19,126.41V145.60" stroke="#B48022"/>
<path d="M607.31,130.82V142.70" stroke="#B48022"/>
<path d="M609.43,126.63V149.71" stroke="#B48022"/>
<path d="M611.54,131.19V145.43" stroke="#B48022"/>
<path d="M613.66,126.83V149.34" stroke="#B48022"/>
<path d="M615.78,130.18V145.02" stroke="#B48022"/>
<path d="M617.89,131.61V148.95" stroke="#B48022"/>
<path d="M620.01,126.92V145.02" stroke="#B48022"/>
<path d="M622.13,131.97V148.83" stroke="#B48022"/>
<path d="M624.25,126.88V148.73" stroke="#B48022"/>
<path d="M626.36,132.01V142.42" stroke="#B48022"/>
<path d="M628.48,127.17V148.62" stroke="#B48022"/>
<path d="M630.60,133.61V144.82" stroke="#B48022"/>
<path d="M632.72,127.46V148.20" stroke="#B48022"/>
<path d="M634.83,127.35V144.50" stroke="#B48022"/>
<path d="M636.95,132.66V147.93" stroke="#B48022"/>
<path d="M639.07,127.47V144.64" stroke="#B48022"/>
<path d="M641.19,132.68V144.63" stroke="#B48022"/>
<path d="M643.30,127.48V147.78" stroke="#B48022"/>
<path d="M645.42,132.83V144.51" stroke="#B48022"/>
<path d="M647.54,127.83V147.55" stroke="#B48022"/>
<path d="M649.66,134.35V144.41" stroke="#B48022"/>
<path d="M651.77,132.05V147.12" stroke="#B48022"/>
<path d="M653.89,128.03V144.27" stroke="#B48022"/>
<path d="M656.01,133.21V146.94" stroke="#B48022"/>
<path d="M658.13,128.18V146.25" stroke="#B48022"/>
<path d="M660.24,133.17V140.95" stroke="#B48022"/>
<path d="M662.36,128.25V146.77" stroke="#B48022"/>
<path d="M664.48,134.35V144.29" stroke="#B48022"/>
<path d="M666.60,128.61V146.57" stroke="#B48022"/>
<path d="M668.71,129.52V144.20" stroke="#B48022"/>
<path d="M670.83,133.52V146.21" stroke="#B48022"/>
<path d="M672.95,128.82V144.17" stroke="#B48022"/>
<path d="M675.07,133.62V145.01" stroke="#B48022"/>
<path d="M677.18,128.99V146.10" stroke="#B48022"/>
<path d="M679.30,133.59V143.92" stroke="#B48022"/>
<path d="M681.42,129.12V145.94" stroke="#B48022"/>
<path d="M683.53,136.71V144.10" stroke="#B48022"/>
<path d="M685.65,130.65V145.74" stroke="#B48022"/>
<path d="M687.77,129.47V144.02" stroke="#B48022"/>
<path d="M689.89,133.93V145.44" stroke="#B48022"/>
<path d="M692.00,129.66V144.03" stroke="#B48022"/>
<path d="M694.12,134.04V140.19" stroke="#B48022"/>
<path d="M696.24,129.82V145.40" stroke="#B48022"/>
<path d="M698.36,134.49V144.05" stroke="#B48022"/>
<path d="M700.47,129.99V145.22" stroke="#B48022"/>
<path d="M702.59,132.18V143.89" stroke="#B48022"/>
<path d="M704.71,134.28V145.01" stroke="#B48022"/>
<path d="M706.83,130.32V143.81" stroke="#B48022"/>
<path d="M708.94,134.39V144.52" stroke="#B48022"/>
<path d="M711.06,130.47V144.82" stroke="#B48022"/>
<path d="M713.18,134.50V142.64" stroke="#B48022"/>
<path d="M715.30,130.63V144.76" stroke="#B48022"/>
<path d="M717.41,136.43V143.78" stroke="#B48022"/>
<path d="M719.53,130.95V144.57" stroke="#B48022"/>
<path d="M721.65,130.81V143.63" stroke="#B48022"/>
<path d="M723.77,134.78V144.41" stroke="#B48022"/>
<path d="M725.88,131.07V143.54" stroke="#B48022"/>
<path d="M728.00,134.88V141.24" stroke="#B48022"/>
<path d="M730.12,131.19V144.25" stroke="#B48022"/>
<path d="M732.24,134.99V143.53" stroke="#B48022"/>
<path d="M734.35,131.33V144.17" stroke="#B48022"/>
<path d="M736.47,134.13V143.45" stroke="#B48022"/>
<path d="M738.59,134.82V144.00" stroke="#B48022"/>
<path d="M740.70,131.50V143.31" stroke="#B48022"/>
<path d="M742.82,135.28V143.83" stroke="#B48022"/>
<path d="M744.94,131.68V143.75" stroke="#B48022"/>
<path d="M747.06,135.39V141.13" stroke="#B48022"/>
<path d="M749.17,131.76V143.68" stroke="#B48022"/>
<path d="M751.29,136.13V143.20" stroke="#B48022"/>
<path d="M753.41,131.86V143.59" stroke="#B48022"/>
<path d="M755.53,131.92V143.10" stroke="#B48022"/>
<path d="M757.64,135.59V143.42" stroke="#B48022"/>
<path d="M759.76,132.03V142.97" stroke="#B48022"/>
<path d="M761.88,135.78V141.76" stroke="#B48022"/>
<path d="M764.00,132.13V143.26" stroke="#B48022"/>
<path d="M766.11,135.87V142.84" stroke="#B48022"/>
<path d="M768.23,132.20V143.13" stroke="#B48022"/>
<path d="M770.35,136.07V142.87" stroke="#B48022"/>
<path d="M772.47,134.13V143.01" stroke="#B48022"/>
<path d="M774.58,132.31V142.74" stroke="#B48022"/>
<path d="M776.70,136.08V142.86" stroke="#B48022"/>
<path d="M778.82,132.44V142.65" stroke="#B48022"/>
<path d="M780.94,136.12V139.91" stroke="#B48022"/>
<path d="M783.05,132.51V142.70" stroke="#B48022"/>
<path d="M785.17,136.08V142.58" stroke="#B48022"/>
<path d="M787.29,132.60V142.58" stroke="#B48022"/>
<path d="M789.41,133.03V142.53" stroke="#B48022"/>
<path d="M791.52,136.37V142.46" stroke="#B48022"/>
<path d="M793.64,132.69V142.42" stroke="#B48022"/>
<path d="M795.76,136.12V141.87" stroke="#B48022"/>
<path d="M797.87,132.81V142.35" stroke="#B48022"/>
<path d="M799.99,136.16V141.99" stroke="#B48022"/>
<path d="M802.11,132.88V142.17" stroke="#B48022"/>
<path d="M804.23,136.13V142.29" stroke="#B48022"/>
<path d="M806.34,133.76V142.07" stroke="#B48022"/>
<path d="M808.46,132.97V142.25" stroke="#B48022"/>
<path d="M810.58,136.59V141.94" stroke="#B48022"/>
<path d="M812.70,133.06V142.15" stroke="#B48022"/>
<path d="M814.81,136.20V139.35" stroke="#B48022"/>
<path d="M816.93,133.18V141.81" stroke="#B48022"/>
<path d="M819.05,136.23V142.09" stroke="#B48022"/>
<path d="M821.17,133.26V141.68" stroke="#B48022"/>
<path d="M823.28,134.54V142.04" stroke="#B48022"/>
<path d="M825.40,136.87V141.61" stroke="#B48022"/>
<path d="M827.52,133.35V141.99" stroke="#B48022"/>
<path d="M829.64,136.26V141.44" stroke="#B48022"/>
<path d="M831.75,133.45V141.89" stroke="#B48022"/>
<path d="M833.87,136.29V141.04" stroke="#B48022"/>
<path d="M835.99,133.57V141.36" stroke="#B48022"/>
<path d="M838.11,136.30V141.86" stroke="#B48022"/>
<path d="M840.22,133.76V141.27" stroke="#B48022"/>
<path d="M842.34,133.65V141.81" stroke="#B48022"/>
<path d="M844.46,136.84V141.20" stroke="#B48022"/>
<path d="M846.58,133.75V141.75" stroke="#B48022"/>
<path d="M848.69,136.33V139.83" stroke="#B48022"/>
<path d="M850.81,133.85V141.55" stroke="#B48022"/>
<path d="M852.93,136.35V141.67" stroke="#B48022"/>
<path d="M855.04,134.00V140.98" stroke="#B48022"/>
<path d="M857.16,136.12V141.59" stroke="#B48022"/>
<path d="M859.28,136.08V140.83" stroke="#B48022"/>
<path d="M861.40,134.20V141.41" stroke="#B48022"/>
<path d="M863.51,136.44V140.63" stroke="#B48022"/>
<path d="M865.63,134.49V141.16" stroke="#B48022"/>
<path d="M867.75,136.55V139.74" stroke="#B48022"/>
<path d="M869.87,134.82V140.37" stroke="#B48022"/>
<path d="M871.98,136.67V140.87" stroke="#B48022"/>
<path d="M874.10,135.20V140.10" stroke="#B48022"/>
<path d="M876.22,135.30V140.55" stroke="#B48022"/>
<path d="M878.34,137.31V139.82" stroke="#B48022"/>
<path d="M880.45,135.59V140.20" stroke="#B48022"/>
<path d="M882.57,136.96V139.15" stroke="#B48022"/>
<path d="M884.69,136.00V139.82" stroke="#B48022"/>
<path d="M886.81,137.13V139.78" stroke="#B48022"/>
<path d="M888.92,136.40V139.22" stroke="#B48022"/>
<path d="M891.04,137.30V139.47" stroke="#B48022"/>
<path d="M893.16,137.06V138.95" stroke="#B48022"/>
<path d="M895.28,136.77V139.13" stroke="#B48022"/>
<path d="M897.39,137.46V138.70" stroke="#B48022"/>
<path d="M899.51,137.11V138.81" stroke="#B48022"/>
<path d="M901.63,137.61V138.25" stroke="#B48022"/>
<path d="M903.75,137.40V138.48" stroke="#B48022"/>
<path d="M905.86,137.74V138.54" stroke="#B48022"/>
<path d="M907.98,137.64V138.29" stroke="#B48022"/>
<path d="M910.10,137.70V138.32" stroke="#B48022"/>
<path d="M912.21,137.95V138.15" stroke="#B48022"/>
<path d="M914.33,137.82V138.15" stroke="#B48022"/>
<path d="M916.45,137.93V138.05" stroke="#B48022"/>
<path d="M918.57,137.94V138.06" stroke="#B48022"/>
<path d="M920.68,137.98V138.04" stroke="#B48022"/>
<path d="M922.80,137.99V138.01" stroke="#B48022"/>
<path d="M924.92,138.00V138.00" stroke="#B48022"/>
<text x="205" y="189" font-size="14">Rounded brass A5 bell with a lighter E6 answer</text>
<text x="40" y="236" font-size="20" font-weight="700">bell-02</text>
<text x="40" y="263" font-size="12">390 ms</text>
<line x1="205" x2="1160" y1="254" y2="254" stroke="#D8D2C3"/>
<path d="M205.00,253.95V254.72" stroke="#B48022"/>
<path d="M207.12,251.86V259.14" stroke="#B48022"/>
<path d="M209.23,245.57V267.24" stroke="#B48022"/>
<path d="M211.35,239.05V275.28" stroke="#B48022"/>
<path d="M213.47,231.49V279.56" stroke="#B48022"/>
<path d="M215.59,224.81V284.43" stroke="#B48022"/>
<path d="M217.70,224.41V285.57" stroke="#B48022"/>
<path d="M219.82,226.75V284.36" stroke="#B48022"/>
<path d="M221.94,225.48V283.30" stroke="#B48022"/>
<path d="M224.06,224.48V285.02" stroke="#B48022"/>
<path d="M226.17,225.62V285.40" stroke="#B48022"/>
<path d="M228.29,228.40V284.84" stroke="#B48022"/>
<path d="M230.41,227.30V283.83" stroke="#B48022"/>
<path d="M232.53,226.22V284.55" stroke="#B48022"/>
<path d="M234.64,226.74V284.23" stroke="#B48022"/>
<path d="M236.76,228.52V284.59" stroke="#B48022"/>
<path d="M238.88,229.67V283.33" stroke="#B48022"/>
<path d="M241.00,227.69V282.43" stroke="#B48022"/>
<path d="M243.11,227.42V283.61" stroke="#B48022"/>
<path d="M245.23,229.26V284.26" stroke="#B48022"/>
<path d="M247.35,230.84V283.15" stroke="#B48022"/>
<path d="M249.47,228.72V281.91" stroke="#B48022"/>
<path d="M251.58,228.69V283.35" stroke="#B48022"/>
<path d="M253.70,230.06V283.99" stroke="#B48022"/>
<path d="M255.82,231.43V282.70" stroke="#B48022"/>
<path d="M257.94,230.56V281.57" stroke="#B48022"/>
<path d="M260.05,230.04V283.05" stroke="#B48022"/>
<path d="M262.17,229.68V283.24" stroke="#B48022"/>
<path d="M264.29,231.08V281.89" stroke="#B48022"/>
<path d="M266.40,232.28V280.75" stroke="#B48022"/>
<path d="M268.52,230.23V282.04" stroke="#B48022"/>
<path d="M270.64,229.83V282.24" stroke="#B48022"/>
<path d="M272.76,231.17V280.90" stroke="#B48022"/>
<path d="M274.87,232.56V279.74" stroke="#B48022"/>
<path d="M276.99,230.75V280.93" stroke="#B48022"/>
<path d="M279.11,230.37V281.46" stroke="#B48022"/>
<path d="M281.23,231.04V280.25" stroke="#B48022"/>
<path d="M283.34,232.91V279.03" stroke="#B48022"/>
<path d="M285.46,231.55V280.27" stroke="#B48022"/>
<path d="M287.58,230.36V280.71" stroke="#B48022"/>
<path d="M289.70,230.73V279.60" stroke="#B48022"/>
<path d="M291.81,232.25V278.30" stroke="#B48022"/>
<path d="M293.93,231.49V279.40" stroke="#B48022"/>
<path d="M296.05,230.19V279.73" stroke="#B48022"/>
<path d="M298.17,230.72V278.43" stroke="#B48022"/>
<path d="M300.28,230.79V277.18" stroke="#B48022"/>
<path d="M302.40,231.52V278.11" stroke="#B48022"/>
<path d="M304.52,230.74V278.43" stroke="#B48022"/>
<path d="M306.64,230.54V277.22" stroke="#B48022"/>
<path d="M308.75,231.04V275.87" stroke="#B48022"/>
<path d="M310.87,232.56V276.77" stroke="#B48022"/>
<path d="M312.99,232.02V277.27" stroke="#B48022"/>
<path d="M315.11,231.01V276.47" stroke="#B48022"/>
<path d="M317.22,231.27V274.99" stroke="#B48022"/>
<path d="M319.34,232.54V275.70" stroke="#B48022"/>
<path d="M321.46,232.36V276.31" stroke="#B48022"/>
<path d="M323.57,231.19V275.51" stroke="#B48022"/>
<path d="M325.69,231.41V274.03" stroke="#B48022"/>
<path d="M327.81,232.55V274.53" stroke="#B48022"/>
<path d="M329.93,232.46V275.13" stroke="#B48022"/>
<path d="M332.04,231.49V274.24" stroke="#B48022"/>
<path d="M334.16,231.75V272.80" stroke="#B48022"/>
<path d="M336.28,232.96V273.16" stroke="#B48022"/>
<path d="M338.40,232.91V273.73" stroke="#B48022"/>
<path d="M340.51,232.05V273.30" stroke="#B48022"/>
<path d="M342.63,232.33V272.07" stroke="#B48022"/>
<path d="M344.75,233.51V271.94" stroke="#B48022"/>
<path d="M346.87,233.53V272.71" stroke="#B48022"/>
<path d="M348.98,232.70V272.64" stroke="#B48022"/>
<path d="M351.10,232.87V271.48" stroke="#B48022"/>
<path d="M353.22,233.88V271.03" stroke="#B48022"/>
<path d="M355.34,234.05V271.85" stroke="#B48022"/>
<path d="M357.45,233.23V271.81" stroke="#B48022"/>
<path d="M359.57,233.35V270.86" stroke="#B48022"/>
<path d="M361.69,234.33V270.05" stroke="#B48022"/>
<path d="M363.81,234.50V270.82" stroke="#B48022"/>
<path d="M365.92,233.84V271.09" stroke="#B48022"/>
<path d="M368.04,233.99V270.64" stroke="#B48022"/>
<path d="M370.16,234.98V269.69" stroke="#B48022"/>
<path d="M372.28,235.20V270.11" stroke="#B48022"/>
<path d="M374.39,234.62V270.73" stroke="#B48022"/>
<path d="M376.51,234.78V270.42" stroke="#B48022"/>
<path d="M378.63,235.72V270.49" stroke="#B48022"/>
<path d="M380.75,236.02V269.70" stroke="#B48022"/>
<path d="M382.86,235.44V270.01" stroke="#B48022"/>
<path d="M384.98,235.53V270.32" stroke="#B48022"/>
<path d="M387.10,236.37V270.17" stroke="#B48022"/>
<path d="M389.21,236.70V269.38" stroke="#B48022"/>
<path d="M391.33,236.22V269.25" stroke="#B48022"/>
<path d="M393.45,236.22V269.90" stroke="#B48022"/>
<path d="M395.57,237.05V269.98" stroke="#B48022"/>
<path d="M397.68,237.42V269.34" stroke="#B48022"/>
<path d="M399.80,236.96V269.04" stroke="#B48022"/>
<path d="M401.92,237.02V269.66" stroke="#B48022"/>
<path d="M404.04,237.81V269.83" stroke="#B48022"/>
<path d="M406.15,238.26V269.26" stroke="#B48022"/>
<path d="M408.27,237.86V268.90" stroke="#B48022"/>
<path d="M410.39,237.92V269.42" stroke="#B48022"/>
<path d="M412.51,238.62V269.62" stroke="#B48022"/>
<path d="M414.62,239.09V269.08" stroke="#B48022"/>
<path d="M416.74,238.77V268.65" stroke="#B48022"/>
<path d="M418.86,238.69V269.10" stroke="#B48022"/>
<path d="M420.98,239.29V269.26" stroke="#B48022"/>
<path d="M423.09,239.80V268.80" stroke="#B48022"/>
<path d="M425.21,242.37V268.17" stroke="#B48022"/>
<path d="M427.33,232.32V271.55" stroke="#B48022"/>
<path d="M429.45,245.07V272.63" stroke="#B48022"/>
<path d="M431.56,230.39V274.95" stroke="#B48022"/>
<path d="M433.68,245.63V274.48" stroke="#B48022"/>
<path d="M435.80,230.82V274.26" stroke="#B48022"/>
<path d="M437.92,242.01V274.07" stroke="#B48022"/>
<path d="M440.03,231.95V276.18" stroke="#B48022"/>
<path d="M442.15,238.59V275.48" stroke="#B48022"/>
<path d="M444.27,231.01V276.26" stroke="#B48022"/>
<path d="M446.38,236.96V275.23" stroke="#B48022"/>
<path d="M448.50,232.17V275.45" stroke="#B48022"/>
<path d="M450.62,235.28V274.42" stroke="#B48022"/>
<path d="M452.74,233.41V273.94" stroke="#B48022"/>
<path d="M454.85,233.86V273.90" stroke="#B48022"/>
<path d="M456.97,233.92V275.14" stroke="#B48022"/>
<path d="M459.09,233.26V274.78" stroke="#B48022"/>
<path d="M461.21,234.20V275.06" stroke="#B48022"/>
<path d="M463.32,233.13V274.16" stroke="#B48022"/>
<path d="M465.44,236.49V274.23" stroke="#B48022"/>
<path d="M467.56,234.59V272.94" stroke="#B48022"/>
<path d="M469.68,239.58V272.90" stroke="#B48022"/>
<path d="M471.79,234.19V272.85" stroke="#B48022"/>
<path d="M473.91,244.51V273.56" stroke="#B48022"/>
<path d="M476.03,233.70V273.38" stroke="#B48022"/>
<path d="M478.15,245.44V273.24" stroke="#B48022"/>
<path d="M480.26,234.32V272.79" stroke="#B48022"/>
<path d="M482.38,246.33V272.31" stroke="#B48022"/>
<path d="M484.50,234.71V271.47" stroke="#B48022"/>
<path d="M486.62,243.93V271.47" stroke="#B48022"/>
<path d="M488.73,234.16V271.61" stroke="#B48022"/>
<path d="M490.85,242.98V271.89" stroke="#B48022"/>
<path d="M492.97,233.83V271.89" stroke="#B48022"/>
<path d="M495.09,242.55V271.33" stroke="#B48022"/>
<path d="M497.20,234.73V271.17" stroke="#B48022"/>
<path d="M499.32,243.55V270.13" stroke="#B48022"/>
<path d="M501.44,234.89V270.02" stroke="#B48022"/>
<path d="M503.55,243.81V269.47" stroke="#B48022"/>
<path d="M505.67,234.40V270.71" stroke="#B48022"/>
<path d="M507.79,243.46V269.81" stroke="#B48022"/>
<path d="M509.91,234.28V270.42" stroke="#B48022"/>
<path d="M512.02,243.32V269.02" stroke="#B48022"/>
<path d="M514.14,235.20V269.82" stroke="#B48022"/>
<path d="M516.26,244.32V267.33" stroke="#B48022"/>
<path d="M518.38,235.37V269.45" stroke="#B48022"/>
<path d="M520.49,244.57V264.31" stroke="#B48022"/>
<path d="M522.61,235.17V270.08" stroke="#B48022"/>
<path d="M524.73,244.30V263.20" stroke="#B48022"/>
<path d="M526.85,235.16V269.51" stroke="#B48022"/>
<path d="M528.96,244.25V265.87" stroke="#B48022"/>
<path d="M531.08,236.04V269.12" stroke="#B48022"/>
<path d="M533.20,245.32V268.04" stroke="#B48022"/>
<path d="M535.32,236.16V269.34" stroke="#B48022"/>
<path d="M537.43,245.61V269.21" stroke="#B48022"/>
<path d="M539.55,236.22V269.46" stroke="#B48022"/>
<path d="M541.67,245.42V269.71" stroke="#B48022"/>
<path d="M543.79,236.40V268.21" stroke="#B48022"/>
<path d="M545.90,245.44V268.96" stroke="#B48022"/>
<path d="M548.02,237.28V266.32" stroke="#B48022"/>
<path d="M550.14,246.46V268.76" stroke="#B48022"/>
<path d="M552.26,237.38V264.37" stroke="#B48022"/>
<path d="M554.37,246.45V268.96" stroke="#B48022"/>
<path d="M556.49,237.52V264.80" stroke="#B48022"/>
<path d="M558.61,246.39V269.15" stroke="#B48022"/>
<path d="M560.72,237.82V264.34" stroke="#B48022"/>
<path d="M562.84,246.61V268.42" stroke="#B48022"/>
<path d="M564.96,238.77V263.92" stroke="#B48022"/>
<path d="M567.08,247.16V268.25" stroke="#B48022"/>
<path d="M569.19,238.87V264.00" stroke="#B48022"/>
<path d="M571.31,246.64V268.40" stroke="#B48022"/>
<path d="M573.43,239.02V264.25" stroke="#B48022"/>
<path d="M575.55,246.73V268.36" stroke="#B48022"/>
<path d="M577.66,239.44V263.66" stroke="#B48022"/>
<path d="M579.78,246.51V267.76" stroke="#B48022"/>
<path d="M581.90,240.30V263.48" stroke="#B48022"/>
<path d="M584.02,243.89V267.59" stroke="#B48022"/>
<path d="M586.13,240.41V263.69" stroke="#B48022"/>
<path d="M588.25,242.26V267.63" stroke="#B48022"/>
<path d="M590.37,240.63V263.68" stroke="#B48022"/>
<path d="M592.49,241.42V267.42" stroke="#B48022"/>
<path d="M594.60,241.09V263.16" stroke="#B48022"/>
<path d="M596.72,241.28V266.92" stroke="#B48022"/>
<path d="M598.84,242.23V262.97" stroke="#B48022"/>
<path d="M600.96,241.77V266.73" stroke="#B48022"/>
<path d="M603.07,243.67V263.15" stroke="#B48022"/>
<path d="M605.19,241.82V266.77" stroke="#B48022"/>
<path d="M607.31,245.70V263.02" stroke="#B48022"/>
<path d="M609.43,242.09V266.43" stroke="#B48022"/>
<path d="M611.54,247.89V262.54" stroke="#B48022"/>
<path d="M613.66,242.57V265.94" stroke="#B48022"/>
<path d="M615.78,247.74V262.30" stroke="#B48022"/>
<path d="M617.89,242.85V265.82" stroke="#B48022"/>
<path d="M620.01,246.59V262.37" stroke="#B48022"/>
<path d="M622.13,242.87V265.82" stroke="#B48022"/>
<path d="M624.25,246.17V262.14" stroke="#B48022"/>
<path d="M626.36,243.18V265.42" stroke="#B48022"/>
<path d="M628.48,246.08V261.70" stroke="#B48022"/>
<path d="M630.60,243.58V264.99" stroke="#B48022"/>
<path d="M632.72,246.20V261.47" stroke="#B48022"/>
<path d="M634.83,243.54V264.89" stroke="#B48022"/>
<path d="M636.95,245.93V261.45" stroke="#B48022"/>
<path d="M639.07,243.61V264.82" stroke="#B48022"/>
<path d="M641.19,246.08V261.13" stroke="#B48022"/>
<path d="M643.30,243.91V264.42" stroke="#B48022"/>
<path d="M645.42,246.27V260.71" stroke="#B48022"/>
<path d="M647.54,244.21V264.17" stroke="#B48022"/>
<path d="M649.66,246.40V260.15" stroke="#B48022"/>
<path d="M651.77,244.14V264.13" stroke="#B48022"/>
<path d="M653.89,246.25V259.29" stroke="#B48022"/>
<path d="M656.01,244.29V264.05" stroke="#B48022"/>
<path d="M658.13,246.47V258.31" stroke="#B48022"/>
<path d="M660.24,244.51V263.64" stroke="#B48022"/>
<path d="M662.36,246.69V259.20" stroke="#B48022"/>
<path d="M664.48,244.77V263.60" stroke="#B48022"/>
<path d="M666.60,246.80V260.84" stroke="#B48022"/>
<path d="M668.71,244.70V263.54" stroke="#B48022"/>
<path d="M670.83,246.73V262.05" stroke="#B48022"/>
<path d="M672.95,244.90V263.42" stroke="#B48022"/>
<path d="M675.07,247.00V262.83" stroke="#B48022"/>
<path d="M677.18,245.14V263.12" stroke="#B48022"/>
<path d="M679.30,247.24V263.11" stroke="#B48022"/>
<path d="M681.42,245.35V262.67" stroke="#B48022"/>
<path d="M683.53,247.32V263.18" stroke="#B48022"/>
<path d="M685.65,245.34V261.73" stroke="#B48022"/>
<path d="M687.77,247.32V263.10" stroke="#B48022"/>
<path d="M689.89,245.60V260.46" stroke="#B48022"/>
<path d="M692.00,247.59V262.92" stroke="#B48022"/>
<path d="M694.12,245.86V258.80" stroke="#B48022"/>
<path d="M696.24,247.77V262.74" stroke="#B48022"/>
<path d="M698.36,246.01V257.96" stroke="#B48022"/>
<path d="M700.47,247.86V262.74" stroke="#B48022"/>
<path d="M702.59,246.07V257.86" stroke="#B48022"/>
<path d="M704.71,247.90V262.65" stroke="#B48022"/>
<path d="M706.83,246.35V257.74" stroke="#B48022"/>
<path d="M708.94,248.12V262.48" stroke="#B48022"/>
<path d="M711.06,246.60V257.49" stroke="#B48022"/>
<path d="M713.18,248.23V262.30" stroke="#B48022"/>
<path d="M715.30,246.75V257.50" stroke="#B48022"/>
<path d="M717.41,248.24V262.30" stroke="#B48022"/>
<path d="M719.53,246.85V257.44" stroke="#B48022"/>
<path d="M721.65,248.34V262.18" stroke="#B48022"/>
<path d="M723.77,247.14V257.31" stroke="#B48022"/>
<path d="M725.88,248.38V261.97" stroke="#B48022"/>
<path d="M728.00,247.34V257.21" stroke="#B48022"/>
<path d="M730.12,247.75V261.83" stroke="#B48022"/>
<path d="M732.24,247.50V257.24" stroke="#B48022"/>
<path d="M734.35,247.50V261.78" stroke="#B48022"/>
<path d="M736.47,247.91V257.16" stroke="#B48022"/>
<path d="M738.59,247.61V261.62" stroke="#B48022"/>
<path d="M740.70,248.72V257.02" stroke="#B48022"/>
<path d="M742.82,247.85V261.39" stroke="#B48022"/>
<path d="M744.94,249.75V256.98" stroke="#B48022"/>
<path d="M747.06,248.06V261.29" stroke="#B48022"/>
<path d="M749.17,251.00V256.97" stroke="#B48022"/>
<path d="M751.29,248.15V261.19" stroke="#B48022"/>
<path d="M753.41,250.12V256.89" stroke="#B48022"/>
<path d="M755.53,248.31V261.00" stroke="#B48022"/>
<path d="M757.64,249.41V256.76" stroke="#B48022"/>
<path d="M759.76,248.52V260.80" stroke="#B48022"/>
<path d="M761.88,248.91V256.72" stroke="#B48022"/>
<path d="M764.00,248.66V260.70" stroke="#B48022"/>
<path d="M766.11,248.76V256.68" stroke="#B48022"/>
<path d="M768.23,248.75V260.56" stroke="#B48022"/>
<path d="M770.35,248.78V256.58" stroke="#B48022"/>
<path d="M772.47,248.90V260.40" stroke="#B48022"/>
<path d="M774.58,248.91V256.44" stroke="#B48022"/>
<path d="M776.70,249.07V260.21" stroke="#B48022"/>
<path d="M778.82,248.91V256.40" stroke="#B48022"/>
<path d="M780.94,249.16V260.11" stroke="#B48022"/>
<path d="M783.05,248.93V256.28" stroke="#B48022"/>
<path d="M785.17,249.23V259.99" stroke="#B48022"/>
<path d="M787.29,248.99V256.19" stroke="#B48022"/>
<path d="M789.41,249.40V259.83" stroke="#B48022"/>
<path d="M791.52,249.09V256.18" stroke="#B48022"/>
<path d="M793.64,249.50V259.67" stroke="#B48022"/>
<path d="M795.76,249.11V256.20" stroke="#B48022"/>
<path d="M797.87,249.59V259.60" stroke="#B48022"/>
<path d="M799.99,249.18V256.26" stroke="#B48022"/>
<path d="M802.11,249.65V259.46" stroke="#B48022"/>
<path d="M804.23,249.23V257.23" stroke="#B48022"/>
<path d="M806.34,249.79V259.34" stroke="#B48022"/>
<path d="M808.46,249.34V258.10" stroke="#B48022"/>
<path d="M810.58,249.90V259.21" stroke="#B48022"/>
<path d="M812.70,249.39V258.72" stroke="#B48022"/>
<path d="M814.81,249.96V259.16" stroke="#B48022"/>
<path d="M816.93,249.44V259.04" stroke="#B48022"/>
<path d="M819.05,250.04V258.97" stroke="#B48022"/>
<path d="M821.17,249.52V259.04" stroke="#B48022"/>
<path d="M823.28,250.19V258.51" stroke="#B48022"/>
<path d="M825.40,249.64V258.92" stroke="#B48022"/>
<path d="M827.52,250.25V257.81" stroke="#B48022"/>
<path d="M829.64,249.67V258.86" stroke="#B48022"/>
<path d="M831.75,250.34V256.96" stroke="#B48022"/>
<path d="M833.87,249.74V258.80" stroke="#B48022"/>
<path d="M835.99,250.44V255.99" stroke="#B48022"/>
<path d="M838.11,249.85V258.69" stroke="#B48022"/>
<path d="M840.22,250.55V255.44" stroke="#B48022"/>
<path d="M842.34,249.93V258.61" stroke="#B48022"/>
<path d="M844.46,250.63V255.81" stroke="#B48022"/>
<path d="M846.58,249.98V258.55" stroke="#B48022"/>
<path d="M848.69,250.71V256.09" stroke="#B48022"/>
<path d="M850.81,250.06V258.50" stroke="#B48022"/>
<path d="M852.93,250.80V256.22" stroke="#B48022"/>
<path d="M855.04,250.14V258.40" stroke="#B48022"/>
<path d="M857.16,250.91V256.21" stroke="#B48022"/>
<path d="M859.28,250.22V258.32" stroke="#B48022"/>
<path d="M861.40,250.99V256.21" stroke="#B48022"/>
<path d="M863.51,250.26V258.27" stroke="#B48022"/>
<path d="M865.63,251.06V256.20" stroke="#B48022"/>
<path d="M867.75,250.33V258.20" stroke="#B48022"/>
<path d="M869.87,251.16V256.17" stroke="#B48022"/>
<path d="M871.98,250.42V258.10" stroke="#B48022"/>
<path d="M874.10,251.38V256.15" stroke="#B48022"/>
<path d="M876.22,250.45V258.04" stroke="#B48022"/>
<path d="M878.34,251.73V256.13" stroke="#B48022"/>
<path d="M880.45,250.51V257.97" stroke="#B48022"/>
<path d="M882.57,252.19V256.12" stroke="#B48022"/>
<path d="M884.69,250.57V257.88" stroke="#B48022"/>
<path d="M886.81,252.38V256.09" stroke="#B48022"/>
<path d="M888.92,250.63V257.81" stroke="#B48022"/>
<path d="M891.04,251.76V256.05" stroke="#B48022"/>
<path d="M893.16,250.67V257.73" stroke="#B48022"/>
<path d="M895.28,251.27V256.05" stroke="#B48022"/>
<path d="M897.39,250.71V257.66" stroke="#B48022"/>
<path d="M899.51,250.94V256.03" stroke="#B48022"/>
<path d="M901.63,250.77V257.58" stroke="#B48022"/>
<path d="M903.75,250.79V255.99" stroke="#B48022"/>
<path d="M905.86,250.96V257.49" stroke="#B48022"/>
<path d="M907.98,250.82V255.98" stroke="#B48022"/>
<path d="M910.10,251.31V257.42" stroke="#B48022"/>
<path d="M912.21,250.85V255.97" stroke="#B48022"/>
<path d="M914.33,251.82V257.36" stroke="#B48022"/>
<path d="M916.45,250.90V255.96" stroke="#B48022"/>
<path d="M918.57,251.98V257.26" stroke="#B48022"/>
<path d="M920.68,250.95V255.92" stroke="#B48022"/>
<path d="M922.80,252.04V257.18" stroke="#B48022"/>
<path d="M924.92,250.99V255.92" stroke="#B48022"/>
<path d="M927.04,252.09V257.12" stroke="#B48022"/>
<path d="M929.15,251.04V255.91" stroke="#B48022"/>
<path d="M931.27,252.14V257.05" stroke="#B48022"/>
<path d="M933.39,251.08V255.89" stroke="#B48022"/>
<path d="M935.51,252.19V256.96" stroke="#B48022"/>
<path d="M937.62,251.13V255.88" stroke="#B48022"/>
<path d="M939.74,252.26V256.89" stroke="#B48022"/>
<path d="M941.86,251.18V255.87" stroke="#B48022"/>
<path d="M943.98,252.29V256.82" stroke="#B48022"/>
<path d="M946.09,251.21V255.95" stroke="#B48022"/>
<path d="M948.21,252.34V256.76" stroke="#B48022"/>
<path d="M950.33,251.26V256.32" stroke="#B48022"/>
<path d="M952.45,252.39V256.69" stroke="#B48022"/>
<path d="M954.56,251.32V256.55" stroke="#B48022"/>
<path d="M956.68,252.44V256.62" stroke="#B48022"/>
<path d="M958.80,251.35V256.62" stroke="#B48022"/>
<path d="M960.92,252.49V256.40" stroke="#B48022"/>
<path d="M963.03,251.43V256.55" stroke="#B48022"/>
<path d="M965.15,252.57V256.04" stroke="#B48022"/>
<path d="M967.27,251.56V256.42" stroke="#B48022"/>
<path d="M969.38,252.67V255.58" stroke="#B48022"/>
<path d="M971.50,251.71V256.26" stroke="#B48022"/>
<path d="M973.62,252.79V255.07" stroke="#B48022"/>
<path d="M975.74,251.89V256.08" stroke="#B48022"/>
<path d="M977.85,252.90V255.02" stroke="#B48022"/>
<path d="M979.97,252.10V255.87" stroke="#B48022"/>
<path d="M982.09,253.04V255.13" stroke="#B48022"/>
<path d="M984.21,252.32V255.66" stroke="#B48022"/>
<path d="M986.32,253.18V255.13" stroke="#B48022"/>
<path d="M988.44,252.56V255.43" stroke="#B48022"/>
<path d="M990.56,253.31V255.04" stroke="#B48022"/>
<path d="M992.68,252.79V255.20" stroke="#B48022"/>
<path d="M994.79,253.44V254.88" stroke="#B48022"/>
<path d="M996.91,253.01V254.99" stroke="#B48022"/>
<path d="M999.03,253.57V254.72" stroke="#B48022"/>
<path d="M1001.15,253.23V254.77" stroke="#B48022"/>
<path d="M1003.26,253.67V254.56" stroke="#B48022"/>
<path d="M1005.38,253.42V254.58" stroke="#B48022"/>
<path d="M1007.50,253.77V254.42" stroke="#B48022"/>
<path d="M1009.62,253.59V254.42" stroke="#B48022"/>
<path d="M1011.73,253.86V254.29" stroke="#B48022"/>
<path d="M1013.85,253.74V254.27" stroke="#B48022"/>
<path d="M1015.97,253.93V254.18" stroke="#B48022"/>
<path d="M1018.09,253.85V254.16" stroke="#B48022"/>
<path d="M1020.20,253.97V254.10" stroke="#B48022"/>
<path d="M1022.32,253.94V254.07" stroke="#B48022"/>
<path d="M1024.44,253.98V254.04" stroke="#B48022"/>
<path d="M1026.56,253.98V254.02" stroke="#B48022"/>
<path d="M1028.67,253.99V254.01" stroke="#B48022"/>
<path d="M1030.79,254.00V254.00" stroke="#B48022"/>
<text x="205" y="305" font-size="14">Warm B5 bell with a delayed F-sharp6 shimmer</text>
<text x="40" y="352" font-size="20" font-weight="700">paper-01</text>
<text x="40" y="379" font-size="12">190 ms</text>
<line x1="205" x2="1160" y1="370" y2="370" stroke="#D8D2C3"/>
<path d="M205.00,369.99V370.02" stroke="#A7484D"/>
<path d="M207.12,369.47V370.07" stroke="#A7484D"/>
<path d="M209.23,369.43V370.86" stroke="#A7484D"/>
<path d="M211.35,367.93V371.67" stroke="#A7484D"/>
<path d="M213.47,366.68V374.01" stroke="#A7484D"/>
<path d="M215.59,367.64V372.73" stroke="#A7484D"/>
<path d="M217.70,366.42V374.95" stroke="#A7484D"/>
<path d="M219.82,364.41V376.51" stroke="#A7484D"/>
<path d="M221.94,362.52V376.98" stroke="#A7484D"/>
<path d="M224.06,363.74V376.59" stroke="#A7484D"/>
<path d="M226.17,365.37V377.60" stroke="#A7484D"/>
<path d="M228.29,364.73V372.93" stroke="#A7484D"/>
<path d="M230.41,362.22V381.61" stroke="#A7484D"/>
<path d="M232.53,354.95V385.41" stroke="#A7484D"/>
<path d="M234.64,356.97V380.04" stroke="#A7484D"/>
<path d="M236.76,362.90V383.43" stroke="#A7484D"/>
<path d="M238.88,353.74V381.31" stroke="#A7484D"/>
<path d="M241.00,356.81V378.00" stroke="#A7484D"/>
<path d="M243.11,356.98V388.74" stroke="#A7484D"/>
<path d="M245.23,364.08V387.05" stroke="#A7484D"/>
<path d="M247.35,346.25V376.66" stroke="#A7484D"/>
<path d="M249.47,364.16V385.97" stroke="#A7484D"/>
<path d="M251.58,357.31V392.24" stroke="#A7484D"/>
<path d="M253.70,354.79V381.82" stroke="#A7484D"/>
<path d="M255.82,354.69V390.21" stroke="#A7484D"/>
<path d="M257.94,357.08V378.20" stroke="#A7484D"/>
<path d="M260.05,364.99V382.35" stroke="#A7484D"/>
<path d="M262.17,350.23V388.86" stroke="#A7484D"/>
<path d="M264.29,353.68V387.87" stroke="#A7484D"/>
<path d="M266.40,358.29V383.49" stroke="#A7484D"/>
<path d="M268.52,344.77V394.21" stroke="#A7484D"/>
<path d="M270.64,342.79V387.41" stroke="#A7484D"/>
<path d="M272.76,353.02V396.21" stroke="#A7484D"/>
<path d="M274.87,343.23V382.68" stroke="#A7484D"/>
<path d="M276.99,354.42V395.35" stroke="#A7484D"/>
<path d="M279.11,354.84V386.57" stroke="#A7484D"/>
<path d="M281.23,346.70V401.57" stroke="#A7484D"/>
<path d="M283.34,351.65V394.96" stroke="#A7484D"/>
<path d="M285.46,352.96V383.05" stroke="#A7484D"/>
<path d="M287.58,354.40V382.05" stroke="#A7484D"/>
<path d="M289.70,347.67V382.60" stroke="#A7484D"/>
<path d="M291.81,356.47V383.83" stroke="#A7484D"/>
<path d="M293.93,357.52V385.37" stroke="#A7484D"/>
<path d="M296.05,361.37V373.88" stroke="#A7484D"/>
<path d="M298.17,361.29V377.50" stroke="#A7484D"/>
<path d="M300.28,356.24V378.83" stroke="#A7484D"/>
<path d="M302.40,357.25V383.69" stroke="#A7484D"/>
<path d="M304.52,357.32V380.45" stroke="#A7484D"/>
<path d="M306.64,360.36V378.41" stroke="#A7484D"/>
<path d="M308.75,355.36V377.60" stroke="#A7484D"/>
<path d="M310.87,363.84V380.42" stroke="#A7484D"/>
<path d="M312.99,361.68V380.67" stroke="#A7484D"/>
<path d="M315.11,362.41V381.66" stroke="#A7484D"/>
<path d="M317.22,366.27V383.99" stroke="#A7484D"/>
<path d="M319.34,360.35V374.54" stroke="#A7484D"/>
<path d="M321.46,359.68V376.47" stroke="#A7484D"/>
<path d="M323.57,359.83V388.68" stroke="#A7484D"/>
<path d="M325.69,360.07V381.50" stroke="#A7484D"/>
<path d="M327.81,357.78V382.32" stroke="#A7484D"/>
<path d="M329.93,355.34V378.87" stroke="#A7484D"/>
<path d="M332.04,359.73V386.44" stroke="#A7484D"/>
<path d="M334.16,358.65V378.99" stroke="#A7484D"/>
<path d="M336.28,351.25V381.97" stroke="#A7484D"/>
<path d="M338.40,352.77V382.09" stroke="#A7484D"/>
<path d="M340.51,363.06V389.48" stroke="#A7484D"/>
<path d="M342.63,362.55V381.26" stroke="#A7484D"/>
<path d="M344.75,353.99V389.94" stroke="#A7484D"/>
<path d="M346.87,362.13V384.85" stroke="#A7484D"/>
<path d="M348.98,361.20V391.49" stroke="#A7484D"/>
<path d="M351.10,345.61V379.62" stroke="#A7484D"/>
<path d="M353.22,365.07V384.92" stroke="#A7484D"/>
<path d="M355.34,359.37V381.22" stroke="#A7484D"/>
<path d="M357.45,354.01V381.50" stroke="#A7484D"/>
<path d="M359.57,356.94V390.90" stroke="#A7484D"/>
<path d="M361.69,356.90V382.32" stroke="#A7484D"/>
<path d="M363.81,358.29V377.61" stroke="#A7484D"/>
<path d="M365.92,363.43V384.24" stroke="#A7484D"/>
<path d="M368.04,351.77V381.21" stroke="#A7484D"/>
<path d="M370.16,352.73V383.62" stroke="#A7484D"/>
<path d="M372.28,356.70V384.78" stroke="#A7484D"/>
<path d="M374.39,358.87V381.62" stroke="#A7484D"/>
<path d="M376.51,356.85V381.40" stroke="#A7484D"/>
<path d="M378.63,357.81V380.57" stroke="#A7484D"/>
<path d="M380.75,352.03V382.63" stroke="#A7484D"/>
<path d="M382.86,354.69V383.85" stroke="#A7484D"/>
<path d="M384.98,361.37V385.90" stroke="#A7484D"/>
<path d="M387.10,353.86V386.86" stroke="#A7484D"/>
<path d="M389.21,354.80V385.71" stroke="#A7484D"/>
<path d="M391.33,361.60V381.69" stroke="#A7484D"/>
<path d="M393.45,351.68V378.94" stroke="#A7484D"/>
<path d="M395.57,356.78V383.59" stroke="#A7484D"/>
<path d="M397.68,359.02V377.24" stroke="#A7484D"/>
<path d="M399.80,357.41V381.38" stroke="#A7484D"/>
<path d="M401.92,357.79V382.29" stroke="#A7484D"/>
<path d="M404.04,359.66V380.75" stroke="#A7484D"/>
<path d="M406.15,361.43V380.26" stroke="#A7484D"/>
<path d="M408.27,362.15V381.23" stroke="#A7484D"/>
<path d="M410.39,360.63V374.92" stroke="#A7484D"/>
<path d="M412.51,363.78V376.44" stroke="#A7484D"/>
<path d="M414.62,359.59V376.86" stroke="#A7484D"/>
<path d="M416.74,361.88V379.40" stroke="#A7484D"/>
<path d="M418.86,361.74V378.97" stroke="#A7484D"/>
<path d="M420.98,360.33V380.38" stroke="#A7484D"/>
<path d="M423.09,360.79V379.80" stroke="#A7484D"/>
<path d="M425.21,358.46V379.92" stroke="#A7484D"/>
<path d="M427.33,364.16V375.18" stroke="#A7484D"/>
<path d="M429.45,364.87V378.22" stroke="#A7484D"/>
<path d="M431.56,366.52V378.25" stroke="#A7484D"/>
<path d="M433.68,362.41V375.65" stroke="#A7484D"/>
<path d="M435.80,361.54V376.28" stroke="#A7484D"/>
<path d="M437.92,364.10V378.42" stroke="#A7484D"/>
<path d="M440.03,357.09V377.42" stroke="#A7484D"/>
<path d="M442.15,362.69V376.52" stroke="#A7484D"/>
<path d="M444.27,365.16V377.69" stroke="#A7484D"/>
<path d="M446.38,355.47V383.06" stroke="#A7484D"/>
<path d="M448.50,360.67V375.57" stroke="#A7484D"/>
<path d="M450.62,366.06V376.69" stroke="#A7484D"/>
<path d="M452.74,361.31V378.87" stroke="#A7484D"/>
<path d="M454.85,359.35V376.58" stroke="#A7484D"/>
<path d="M456.97,362.41V381.32" stroke="#A7484D"/>
<path d="M459.09,362.49V379.10" stroke="#A7484D"/>
<path d="M461.21,359.48V379.93" stroke="#A7484D"/>
<path d="M463.32,360.11V377.68" stroke="#A7484D"/>
<path d="M465.44,362.22V380.29" stroke="#A7484D"/>
<path d="M467.56,362.88V380.16" stroke="#A7484D"/>
<path d="M469.68,362.62V375.29" stroke="#A7484D"/>
<path d="M471.79,366.21V378.59" stroke="#A7484D"/>
<path d="M473.91,360.47V380.05" stroke="#A7484D"/>
<path d="M476.03,364.96V377.20" stroke="#A7484D"/>
<path d="M478.15,365.17V374.10" stroke="#A7484D"/>
<path d="M480.26,360.86V374.61" stroke="#A7484D"/>
<path d="M482.38,365.35V381.82" stroke="#A7484D"/>
<path d="M484.50,359.10V376.14" stroke="#A7484D"/>
<path d="M486.62,359.84V381.55" stroke="#A7484D"/>
<path d="M488.73,361.92V378.65" stroke="#A7484D"/>
<path d="M490.85,361.34V376.21" stroke="#A7484D"/>
<path d="M492.97,359.09V378.42" stroke="#A7484D"/>
<path d="M495.09,355.88V379.04" stroke="#A7484D"/>
<path d="M497.20,362.38V378.41" stroke="#A7484D"/>
<path d="M499.32,358.80V376.69" stroke="#A7484D"/>
<path d="M501.44,364.69V384.09" stroke="#A7484D"/>
<path d="M503.55,363.29V373.13" stroke="#A7484D"/>
<path d="M505.67,358.06V379.38" stroke="#A7484D"/>
<path d="M507.79,359.88V382.99" stroke="#A7484D"/>
<path d="M509.91,365.48V381.21" stroke="#A7484D"/>
<path d="M512.02,358.24V373.57" stroke="#A7484D"/>
<path d="M514.14,359.73V378.27" stroke="#A7484D"/>
<path d="M516.26,364.25V373.59" stroke="#A7484D"/>
<path d="M518.38,364.15V374.95" stroke="#A7484D"/>
<path d="M520.49,361.16V379.45" stroke="#A7484D"/>
<path d="M522.61,363.27V375.85" stroke="#A7484D"/>
<path d="M524.73,365.58V376.15" stroke="#A7484D"/>
<path d="M526.85,363.87V375.26" stroke="#A7484D"/>
<path d="M528.96,363.55V375.15" stroke="#A7484D"/>
<path d="M531.08,367.10V373.63" stroke="#A7484D"/>
<path d="M533.20,365.34V374.30" stroke="#A7484D"/>
<path d="M535.32,363.84V374.55" stroke="#A7484D"/>
<path d="M537.43,364.64V375.27" stroke="#A7484D"/>
<path d="M539.55,366.18V376.23" stroke="#A7484D"/>
<path d="M541.67,366.07V371.89" stroke="#A7484D"/>
<path d="M543.79,366.26V374.10" stroke="#A7484D"/>
<path d="M545.90,365.05V372.38" stroke="#A7484D"/>
<path d="M548.02,367.20V372.74" stroke="#A7484D"/>
<path d="M550.14,364.70V372.51" stroke="#A7484D"/>
<path d="M552.26,366.35V373.29" stroke="#A7484D"/>
<path d="M554.37,367.11V372.90" stroke="#A7484D"/>
<path d="M556.49,364.90V374.57" stroke="#A7484D"/>
<path d="M558.61,368.01V371.86" stroke="#A7484D"/>
<path d="M560.72,368.40V372.25" stroke="#A7484D"/>
<path d="M562.84,366.93V371.47" stroke="#A7484D"/>
<path d="M564.96,368.30V371.54" stroke="#A7484D"/>
<path d="M567.08,368.86V371.21" stroke="#A7484D"/>
<path d="M569.19,368.41V371.64" stroke="#A7484D"/>
<path d="M571.31,369.33V370.92" stroke="#A7484D"/>
<path d="M573.43,369.04V370.73" stroke="#A7484D"/>
<path d="M575.55,369.40V370.77" stroke="#A7484D"/>
<path d="M577.66,369.49V370.40" stroke="#A7484D"/>
<path d="M579.78,369.65V370.49" stroke="#A7484D"/>
<path d="M581.90,369.62V370.37" stroke="#A7484D"/>
<path d="M584.02,369.70V370.24" stroke="#A7484D"/>
<path d="M586.13,369.88V370.15" stroke="#A7484D"/>
<path d="M588.25,369.89V370.15" stroke="#A7484D"/>
<path d="M590.37,369.88V370.06" stroke="#A7484D"/>
<path d="M592.49,369.94V370.10" stroke="#A7484D"/>
<path d="M594.60,369.97V370.03" stroke="#A7484D"/>
<path d="M596.72,369.97V370.03" stroke="#A7484D"/>
<path d="M598.84,369.98V370.02" stroke="#A7484D"/>
<path d="M600.96,369.99V370.01" stroke="#A7484D"/>
<path d="M603.07,370.00V370.00" stroke="#A7484D"/>
<path d="M605.19,370.00V370.00" stroke="#A7484D"/>
<path d="M607.31,370.00V370.00" stroke="#A7484D"/>
<text x="205" y="421" font-size="14">Three soft folds with a short ribbon-like brush</text>
<text x="40" y="468" font-size="20" font-weight="700">paper-02</text>
<text x="40" y="495" font-size="12">220 ms</text>
<line x1="205" x2="1160" y1="486" y2="486" stroke="#D8D2C3"/>
<path d="M205.00,485.89V486.10" stroke="#A7484D"/>
<path d="M207.12,485.49V486.82" stroke="#A7484D"/>
<path d="M209.23,484.86V487.38" stroke="#A7484D"/>
<path d="M211.35,483.86V489.42" stroke="#A7484D"/>
<path d="M213.47,481.33V485.73" stroke="#A7484D"/>
<path d="M215.59,483.33V494.55" stroke="#A7484D"/>
<path d="M217.70,478.51V494.31" stroke="#A7484D"/>
<path d="M219.82,478.42V493.58" stroke="#A7484D"/>
<path d="M221.94,473.22V488.03" stroke="#A7484D"/>
<path d="M224.06,481.41V499.03" stroke="#A7484D"/>
<path d="M226.17,476.42V495.36" stroke="#A7484D"/>
<path d="M228.29,474.28V494.23" stroke="#A7484D"/>
<path d="M230.41,472.57V489.96" stroke="#A7484D"/>
<path d="M232.53,473.12V501.71" stroke="#A7484D"/>
<path d="M234.64,470.50V493.80" stroke="#A7484D"/>
<path d="M236.76,473.86V495.72" stroke="#A7484D"/>
<path d="M238.88,470.34V496.45" stroke="#A7484D"/>
<path d="M241.00,470.56V496.40" stroke="#A7484D"/>
<path d="M243.11,468.94V498.94" stroke="#A7484D"/>
<path d="M245.23,472.49V503.73" stroke="#A7484D"/>
<path d="M247.35,474.59V497.98" stroke="#A7484D"/>
<path d="M249.47,471.88V507.28" stroke="#A7484D"/>
<path d="M251.58,473.53V494.96" stroke="#A7484D"/>
<path d="M253.70,475.86V501.03" stroke="#A7484D"/>
<path d="M255.82,479.86V494.03" stroke="#A7484D"/>
<path d="M257.94,475.78V499.39" stroke="#A7484D"/>
<path d="M260.05,471.96V491.39" stroke="#A7484D"/>
<path d="M262.17,475.29V498.29" stroke="#A7484D"/>
<path d="M264.29,480.90V501.49" stroke="#A7484D"/>
<path d="M266.40,461.23V504.86" stroke="#A7484D"/>
<path d="M268.52,469.72V501.82" stroke="#A7484D"/>
<path d="M270.64,470.95V500.79" stroke="#A7484D"/>
<path d="M272.76,472.62V502.44" stroke="#A7484D"/>
<path d="M274.87,476.49V502.39" stroke="#A7484D"/>
<path d="M276.99,469.79V510.77" stroke="#A7484D"/>
<path d="M279.11,464.09V508.60" stroke="#A7484D"/>
<path d="M281.23,459.95V500.66" stroke="#A7484D"/>
<path d="M283.34,475.13V502.52" stroke="#A7484D"/>
<path d="M285.46,467.09V502.56" stroke="#A7484D"/>
<path d="M287.58,461.16V507.20" stroke="#A7484D"/>
<path d="M289.70,463.24V503.74" stroke="#A7484D"/>
<path d="M291.81,470.59V499.84" stroke="#A7484D"/>
<path d="M293.93,469.91V500.54" stroke="#A7484D"/>
<path d="M296.05,470.25V500.58" stroke="#A7484D"/>
<path d="M298.17,468.29V501.79" stroke="#A7484D"/>
<path d="M300.28,474.19V492.90" stroke="#A7484D"/>
<path d="M302.40,475.78V501.29" stroke="#A7484D"/>
<path d="M304.52,464.89V496.37" stroke="#A7484D"/>
<path d="M306.64,480.18V497.87" stroke="#A7484D"/>
<path d="M308.75,468.07V494.02" stroke="#A7484D"/>
<path d="M310.87,476.06V499.22" stroke="#A7484D"/>
<path d="M312.99,478.29V499.64" stroke="#A7484D"/>
<path d="M315.11,481.74V500.71" stroke="#A7484D"/>
<path d="M317.22,473.69V503.08" stroke="#A7484D"/>
<path d="M319.34,458.79V507.98" stroke="#A7484D"/>
<path d="M321.46,468.02V501.42" stroke="#A7484D"/>
<path d="M323.57,473.12V503.80" stroke="#A7484D"/>
<path d="M325.69,474.68V493.03" stroke="#A7484D"/>
<path d="M327.81,476.92V496.83" stroke="#A7484D"/>
<path d="M329.93,475.99V492.85" stroke="#A7484D"/>
<path d="M332.04,475.50V498.93" stroke="#A7484D"/>
<path d="M334.16,476.79V495.35" stroke="#A7484D"/>
<path d="M336.28,475.22V496.74" stroke="#A7484D"/>
<path d="M338.40,470.78V493.84" stroke="#A7484D"/>
<path d="M340.51,471.79V493.18" stroke="#A7484D"/>
<path d="M342.63,478.22V505.11" stroke="#A7484D"/>
<path d="M344.75,468.54V498.89" stroke="#A7484D"/>
<path d="M346.87,477.87V501.95" stroke="#A7484D"/>
<path d="M348.98,473.36V496.99" stroke="#A7484D"/>
<path d="M351.10,471.30V490.76" stroke="#A7484D"/>
<path d="M353.22,480.42V495.72" stroke="#A7484D"/>
<path d="M355.34,472.72V489.38" stroke="#A7484D"/>
<path d="M357.45,479.16V498.05" stroke="#A7484D"/>
<path d="M359.57,475.55V495.77" stroke="#A7484D"/>
<path d="M361.69,474.44V494.53" stroke="#A7484D"/>
<path d="M363.81,475.87V495.64" stroke="#A7484D"/>
<path d="M365.92,477.08V496.35" stroke="#A7484D"/>
<path d="M368.04,478.56V496.34" stroke="#A7484D"/>
<path d="M370.16,477.42V491.12" stroke="#A7484D"/>
<path d="M372.28,483.22V496.18" stroke="#A7484D"/>
<path d="M374.39,473.00V497.50" stroke="#A7484D"/>
<path d="M376.51,472.63V492.92" stroke="#A7484D"/>
<path d="M378.63,469.91V495.50" stroke="#A7484D"/>
<path d="M380.75,475.64V504.87" stroke="#A7484D"/>
<path d="M382.86,470.61V498.31" stroke="#A7484D"/>
<path d="M384.98,473.07V503.96" stroke="#A7484D"/>
<path d="M387.10,472.98V497.42" stroke="#A7484D"/>
<path d="M389.21,469.96V509.24" stroke="#A7484D"/>
<path d="M391.33,463.64V500.06" stroke="#A7484D"/>
<path d="M393.45,467.11V502.31" stroke="#A7484D"/>
<path d="M395.57,469.14V502.50" stroke="#A7484D"/>
<path d="M397.68,464.48V505.66" stroke="#A7484D"/>
<path d="M399.80,464.48V509.29" stroke="#A7484D"/>
<path d="M401.92,464.20V497.86" stroke="#A7484D"/>
<path d="M404.04,475.83V499.00" stroke="#A7484D"/>
<path d="M406.15,463.33V503.71" stroke="#A7484D"/>
<path d="M408.27,473.46V496.37" stroke="#A7484D"/>
<path d="M410.39,480.71V499.52" stroke="#A7484D"/>
<path d="M412.51,471.48V495.52" stroke="#A7484D"/>
<path d="M414.62,471.11V511.68" stroke="#A7484D"/>
<path d="M416.74,474.12V504.01" stroke="#A7484D"/>
<path d="M418.86,459.15V496.26" stroke="#A7484D"/>
<path d="M420.98,466.70V505.12" stroke="#A7484D"/>
<path d="M423.09,468.65V504.87" stroke="#A7484D"/>
<path d="M425.21,454.43V500.12" stroke="#A7484D"/>
<path d="M427.33,466.28V510.72" stroke="#A7484D"/>
<path d="M429.45,469.39V499.64" stroke="#A7484D"/>
<path d="M431.56,470.93V508.24" stroke="#A7484D"/>
<path d="M433.68,455.48V514.05" stroke="#A7484D"/>
<path d="M435.80,467.72V500.02" stroke="#A7484D"/>
<path d="M437.92,472.18V500.46" stroke="#A7484D"/>
<path d="M440.03,468.95V497.31" stroke="#A7484D"/>
<path d="M442.15,474.20V510.08" stroke="#A7484D"/>
<path d="M444.27,474.48V506.85" stroke="#A7484D"/>
<path d="M446.38,468.22V498.03" stroke="#A7484D"/>
<path d="M448.50,467.42V503.11" stroke="#A7484D"/>
<path d="M450.62,475.98V502.08" stroke="#A7484D"/>
<path d="M452.74,476.83V501.68" stroke="#A7484D"/>
<path d="M454.85,466.80V502.66" stroke="#A7484D"/>
<path d="M456.97,471.05V500.13" stroke="#A7484D"/>
<path d="M459.09,467.90V490.98" stroke="#A7484D"/>
<path d="M461.21,473.05V510.46" stroke="#A7484D"/>
<path d="M463.32,476.48V496.62" stroke="#A7484D"/>
<path d="M465.44,469.27V495.17" stroke="#A7484D"/>
<path d="M467.56,475.45V499.30" stroke="#A7484D"/>
<path d="M469.68,472.06V499.24" stroke="#A7484D"/>
<path d="M471.79,476.04V490.35" stroke="#A7484D"/>
<path d="M473.91,477.86V490.58" stroke="#A7484D"/>
<path d="M476.03,478.44V497.23" stroke="#A7484D"/>
<path d="M478.15,478.61V491.27" stroke="#A7484D"/>
<path d="M480.26,476.29V496.39" stroke="#A7484D"/>
<path d="M482.38,481.96V489.91" stroke="#A7484D"/>
<path d="M484.50,477.18V492.77" stroke="#A7484D"/>
<path d="M486.62,477.96V493.23" stroke="#A7484D"/>
<path d="M488.73,480.78V491.11" stroke="#A7484D"/>
<path d="M490.85,481.06V494.66" stroke="#A7484D"/>
<path d="M492.97,478.10V491.74" stroke="#A7484D"/>
<path d="M495.09,480.06V493.34" stroke="#A7484D"/>
<path d="M497.20,476.66V493.63" stroke="#A7484D"/>
<path d="M499.32,478.34V490.41" stroke="#A7484D"/>
<path d="M501.44,477.44V493.02" stroke="#A7484D"/>
<path d="M503.55,476.64V494.33" stroke="#A7484D"/>
<path d="M505.67,482.50V498.07" stroke="#A7484D"/>
<path d="M507.79,480.47V492.13" stroke="#A7484D"/>
<path d="M509.91,478.11V487.96" stroke="#A7484D"/>
<path d="M512.02,482.42V493.35" stroke="#A7484D"/>
<path d="M514.14,480.40V495.69" stroke="#A7484D"/>
<path d="M516.26,478.84V490.74" stroke="#A7484D"/>
<path d="M518.38,477.30V492.75" stroke="#A7484D"/>
<path d="M520.49,481.23V491.45" stroke="#A7484D"/>
<path d="M522.61,476.85V492.27" stroke="#A7484D"/>
<path d="M524.73,481.05V498.54" stroke="#A7484D"/>
<path d="M526.85,481.81V493.40" stroke="#A7484D"/>
<path d="M528.96,480.03V493.36" stroke="#A7484D"/>
<path d="M531.08,482.10V490.68" stroke="#A7484D"/>
<path d="M533.20,479.39V491.80" stroke="#A7484D"/>
<path d="M535.32,480.35V491.50" stroke="#A7484D"/>
<path d="M537.43,480.36V489.38" stroke="#A7484D"/>
<path d="M539.55,480.34V494.67" stroke="#A7484D"/>
<path d="M541.67,478.35V490.14" stroke="#A7484D"/>
<path d="M543.79,481.67V490.54" stroke="#A7484D"/>
<path d="M545.90,479.03V492.57" stroke="#A7484D"/>
<path d="M548.02,479.74V494.52" stroke="#A7484D"/>
<path d="M550.14,476.64V492.51" stroke="#A7484D"/>
<path d="M552.26,479.33V497.35" stroke="#A7484D"/>
<path d="M554.37,480.70V495.34" stroke="#A7484D"/>
<path d="M556.49,478.16V490.38" stroke="#A7484D"/>
<path d="M558.61,479.22V492.23" stroke="#A7484D"/>
<path d="M560.72,477.58V497.55" stroke="#A7484D"/>
<path d="M562.84,480.43V493.53" stroke="#A7484D"/>
<path d="M564.96,475.82V495.90" stroke="#A7484D"/>
<path d="M567.08,481.79V493.17" stroke="#A7484D"/>
<path d="M569.19,478.29V492.18" stroke="#A7484D"/>
<path d="M571.31,473.70V495.25" stroke="#A7484D"/>
<path d="M573.43,475.84V495.93" stroke="#A7484D"/>
<path d="M575.55,480.59V494.16" stroke="#A7484D"/>
<path d="M577.66,480.01V489.32" stroke="#A7484D"/>
<path d="M579.78,478.69V490.11" stroke="#A7484D"/>
<path d="M581.90,483.96V491.46" stroke="#A7484D"/>
<path d="M584.02,482.15V488.47" stroke="#A7484D"/>
<path d="M586.13,480.12V492.39" stroke="#A7484D"/>
<path d="M588.25,480.69V489.64" stroke="#A7484D"/>
<path d="M590.37,481.25V491.80" stroke="#A7484D"/>
<path d="M592.49,482.03V492.78" stroke="#A7484D"/>
<path d="M594.60,480.77V488.24" stroke="#A7484D"/>
<path d="M596.72,477.73V490.82" stroke="#A7484D"/>
<path d="M598.84,481.52V491.20" stroke="#A7484D"/>
<path d="M600.96,482.08V492.68" stroke="#A7484D"/>
<path d="M603.07,479.40V492.27" stroke="#A7484D"/>
<path d="M605.19,481.29V492.43" stroke="#A7484D"/>
<path d="M607.31,480.86V492.24" stroke="#A7484D"/>
<path d="M609.43,481.17V490.38" stroke="#A7484D"/>
<path d="M611.54,481.86V488.61" stroke="#A7484D"/>
<path d="M613.66,483.23V490.68" stroke="#A7484D"/>
<path d="M615.78,479.91V490.86" stroke="#A7484D"/>
<path d="M617.89,478.13V490.54" stroke="#A7484D"/>
<path d="M620.01,483.97V489.63" stroke="#A7484D"/>
<path d="M622.13,477.04V492.97" stroke="#A7484D"/>
<path d="M624.25,480.74V489.27" stroke="#A7484D"/>
<path d="M626.36,483.07V490.05" stroke="#A7484D"/>
<path d="M628.48,483.02V488.22" stroke="#A7484D"/>
<path d="M630.60,483.23V487.87" stroke="#A7484D"/>
<path d="M632.72,484.21V488.50" stroke="#A7484D"/>
<path d="M634.83,483.05V487.83" stroke="#A7484D"/>
<path d="M636.95,482.98V488.21" stroke="#A7484D"/>
<path d="M639.07,484.59V487.93" stroke="#A7484D"/>
<path d="M641.19,484.94V487.11" stroke="#A7484D"/>
<path d="M643.30,485.01V486.74" stroke="#A7484D"/>
<path d="M645.42,484.94V487.04" stroke="#A7484D"/>
<path d="M647.54,485.10V486.66" stroke="#A7484D"/>
<path d="M649.66,485.67V486.64" stroke="#A7484D"/>
<path d="M651.77,485.63V486.37" stroke="#A7484D"/>
<path d="M653.89,485.74V486.39" stroke="#A7484D"/>
<path d="M656.01,485.71V486.26" stroke="#A7484D"/>
<path d="M658.13,485.94V486.25" stroke="#A7484D"/>
<path d="M660.24,485.79V486.05" stroke="#A7484D"/>
<path d="M662.36,485.87V486.11" stroke="#A7484D"/>
<path d="M664.48,485.93V486.09" stroke="#A7484D"/>
<path d="M666.60,485.96V486.02" stroke="#A7484D"/>
<path d="M668.71,486.00V486.01" stroke="#A7484D"/>
<path d="M670.83,486.00V486.00" stroke="#A7484D"/>
<text x="205" y="537" font-size="14">Two wider paper crinkles and a delicate settling rustle</text>
<text x="40" y="584" font-size="20" font-weight="700">snow-01</text>
<text x="40" y="611" font-size="12">240 ms</text>
<line x1="205" x2="1160" y1="602" y2="602" stroke="#D8D2C3"/>
<path d="M205.00,601.95V602.05" stroke="#29756A"/>
<path d="M207.12,601.73V602.99" stroke="#29756A"/>
<path d="M209.23,601.09V603.13" stroke="#29756A"/>
<path d="M211.35,599.46V603.71" stroke="#29756A"/>
<path d="M213.47,598.56V602.01" stroke="#29756A"/>
<path d="M215.59,599.07V609.33" stroke="#29756A"/>
<path d="M217.70,600.42V607.72" stroke="#29756A"/>
<path d="M219.82,597.96V608.64" stroke="#29756A"/>
<path d="M221.94,592.94V608.29" stroke="#29756A"/>
<path d="M224.06,597.78V609.57" stroke="#29756A"/>
<path d="M226.17,590.63V603.75" stroke="#29756A"/>
<path d="M228.29,596.84V603.83" stroke="#29756A"/>
<path d="M230.41,598.06V607.19" stroke="#29756A"/>
<path d="M232.53,595.32V612.09" stroke="#29756A"/>
<path d="M234.64,595.22V605.63" stroke="#29756A"/>
<path d="M236.76,597.30V610.95" stroke="#29756A"/>
<path d="M238.88,589.80V605.70" stroke="#29756A"/>
<path d="M241.00,592.01V605.63" stroke="#29756A"/>
<path d="M243.11,593.49V608.19" stroke="#29756A"/>
<path d="M245.23,588.23V615.18" stroke="#29756A"/>
<path d="M247.35,589.23V606.33" stroke="#29756A"/>
<path d="M249.47,596.80V614.61" stroke="#29756A"/>
<path d="M251.58,592.47V609.15" stroke="#29756A"/>
<path d="M253.70,593.82V607.57" stroke="#29756A"/>
<path d="M255.82,591.82V620.90" stroke="#29756A"/>
<path d="M257.94,594.02V617.07" stroke="#29756A"/>
<path d="M260.05,591.40V606.33" stroke="#29756A"/>
<path d="M262.17,596.18V607.88" stroke="#29756A"/>
<path d="M264.29,599.70V614.15" stroke="#29756A"/>
<path d="M266.40,590.27V620.30" stroke="#29756A"/>
<path d="M268.52,589.83V618.28" stroke="#29756A"/>
<path d="M270.64,583.74V604.31" stroke="#29756A"/>
<path d="M272.76,595.38V613.20" stroke="#29756A"/>
<path d="M274.87,585.16V613.95" stroke="#29756A"/>
<path d="M276.99,599.44V609.07" stroke="#29756A"/>
<path d="M279.11,588.08V612.56" stroke="#29756A"/>
<path d="M281.23,589.16V612.33" stroke="#29756A"/>
<path d="M283.34,601.49V620.13" stroke="#29756A"/>
<path d="M285.46,594.53V609.27" stroke="#29756A"/>
<path d="M287.58,584.83V612.32" stroke="#29756A"/>
<path d="M289.70,589.02V623.53" stroke="#29756A"/>
<path d="M291.81,593.17V613.14" stroke="#29756A"/>
<path d="M293.93,597.24V612.27" stroke="#29756A"/>
<path d="M296.05,581.49V605.49" stroke="#29756A"/>
<path d="M298.17,583.18V617.86" stroke="#29756A"/>
<path d="M300.28,592.57V614.47" stroke="#29756A"/>
<path d="M302.40,583.23V608.65" stroke="#29756A"/>
<path d="M304.52,592.34V626.69" stroke="#29756A"/>
<path d="M306.64,581.37V614.27" stroke="#29756A"/>
<path d="M308.75,592.78V622.42" stroke="#29756A"/>
<path d="M310.87,586.21V614.08" stroke="#29756A"/>
<path d="M312.99,595.79V609.14" stroke="#29756A"/>
<path d="M315.11,574.04V615.39" stroke="#29756A"/>
<path d="M317.22,579.91V615.74" stroke="#29756A"/>
<path d="M319.34,596.96V622.65" stroke="#29756A"/>
<path d="M321.46,580.04V617.69" stroke="#29756A"/>
<path d="M323.57,591.84V624.67" stroke="#29756A"/>
<path d="M325.69,580.81V622.38" stroke="#29756A"/>
<path d="M327.81,598.46V625.13" stroke="#29756A"/>
<path d="M329.93,570.43V614.25" stroke="#29756A"/>
<path d="M332.04,587.22V622.06" stroke="#29756A"/>
<path d="M334.16,587.93V624.50" stroke="#29756A"/>
<path d="M336.28,582.53V602.83" stroke="#29756A"/>
<path d="M338.40,587.09V614.88" stroke="#29756A"/>
<path d="M340.51,588.88V613.19" stroke="#29756A"/>
<path d="M342.63,587.54V629.43" stroke="#29756A"/>
<path d="M344.75,585.64V609.23" stroke="#29756A"/>
<path d="M346.87,597.61V627.46" stroke="#29756A"/>
<path d="M348.98,584.16V617.53" stroke="#29756A"/>
<path d="M351.10,590.09V610.53" stroke="#29756A"/>
<path d="M353.22,583.50V615.35" stroke="#29756A"/>
<path d="M355.34,590.52V610.36" stroke="#29756A"/>
<path d="M357.45,579.58V609.68" stroke="#29756A"/>
<path d="M359.57,589.55V619.41" stroke="#29756A"/>
<path d="M361.69,594.36V614.45" stroke="#29756A"/>
<path d="M363.81,591.84V620.82" stroke="#29756A"/>
<path d="M365.92,596.38V620.93" stroke="#29756A"/>
<path d="M368.04,576.02V617.11" stroke="#29756A"/>
<path d="M370.16,587.44V608.55" stroke="#29756A"/>
<path d="M372.28,586.76V620.20" stroke="#29756A"/>
<path d="M374.39,587.89V614.63" stroke="#29756A"/>
<path d="M376.51,575.93V619.58" stroke="#29756A"/>
<path d="M378.63,596.76V622.77" stroke="#29756A"/>
<path d="M380.75,582.10V614.56" stroke="#29756A"/>
<path d="M382.86,584.13V614.70" stroke="#29756A"/>
<path d="M384.98,589.23V611.93" stroke="#29756A"/>
<path d="M387.10,578.95V622.57" stroke="#29756A"/>
<path d="M389.21,599.37V622.73" stroke="#29756A"/>
<path d="M391.33,585.91V612.62" stroke="#29756A"/>
<path d="M393.45,587.48V606.93" stroke="#29756A"/>
<path d="M395.57,590.66V605.45" stroke="#29756A"/>
<path d="M397.68,592.70V616.65" stroke="#29756A"/>
<path d="M399.80,590.02V611.85" stroke="#29756A"/>
<path d="M401.92,579.69V617.08" stroke="#29756A"/>
<path d="M404.04,592.18V621.73" stroke="#29756A"/>
<path d="M406.15,594.81V617.72" stroke="#29756A"/>
<path d="M408.27,587.43V616.56" stroke="#29756A"/>
<path d="M410.39,586.57V612.10" stroke="#29756A"/>
<path d="M412.51,580.85V610.91" stroke="#29756A"/>
<path d="M414.62,590.87V617.17" stroke="#29756A"/>
<path d="M416.74,599.44V613.09" stroke="#29756A"/>
<path d="M418.86,595.31V613.94" stroke="#29756A"/>
<path d="M420.98,593.19V611.67" stroke="#29756A"/>
<path d="M423.09,592.93V615.24" stroke="#29756A"/>
<path d="M425.21,587.29V617.62" stroke="#29756A"/>
<path d="M427.33,588.67V608.50" stroke="#29756A"/>
<path d="M429.45,593.62V608.74" stroke="#29756A"/>
<path d="M431.56,601.00V620.56" stroke="#29756A"/>
<path d="M433.68,585.86V606.25" stroke="#29756A"/>
<path d="M435.80,591.99V614.40" stroke="#29756A"/>
<path d="M437.92,588.64V615.73" stroke="#29756A"/>
<path d="M440.03,592.96V609.39" stroke="#29756A"/>
<path d="M442.15,592.51V610.89" stroke="#29756A"/>
<path d="M444.27,584.30V617.08" stroke="#29756A"/>
<path d="M446.38,589.96V611.05" stroke="#29756A"/>
<path d="M448.50,596.66V607.85" stroke="#29756A"/>
<path d="M450.62,598.53V615.91" stroke="#29756A"/>
<path d="M452.74,595.04V615.84" stroke="#29756A"/>
<path d="M454.85,595.59V611.48" stroke="#29756A"/>
<path d="M456.97,594.26V604.20" stroke="#29756A"/>
<path d="M459.09,595.17V606.87" stroke="#29756A"/>
<path d="M461.21,592.89V604.42" stroke="#29756A"/>
<path d="M463.32,593.99V605.25" stroke="#29756A"/>
<path d="M465.44,598.87V611.56" stroke="#29756A"/>
<path d="M467.56,591.17V610.94" stroke="#29756A"/>
<path d="M469.68,595.00V604.14" stroke="#29756A"/>
<path d="M471.79,597.89V610.63" stroke="#29756A"/>
<path d="M473.91,597.55V616.14" stroke="#29756A"/>
<path d="M476.03,589.32V605.55" stroke="#29756A"/>
<path d="M478.15,592.38V609.90" stroke="#29756A"/>
<path d="M480.26,602.25V609.84" stroke="#29756A"/>
<path d="M482.38,591.18V608.21" stroke="#29756A"/>
<path d="M484.50,589.19V611.02" stroke="#29756A"/>
<path d="M486.62,596.62V613.65" stroke="#29756A"/>
<path d="M488.73,591.28V606.76" stroke="#29756A"/>
<path d="M490.85,592.04V611.90" stroke="#29756A"/>
<path d="M492.97,594.43V610.02" stroke="#29756A"/>
<path d="M495.09,599.42V611.07" stroke="#29756A"/>
<path d="M497.20,593.01V605.28" stroke="#29756A"/>
<path d="M499.32,592.64V609.61" stroke="#29756A"/>
<path d="M501.44,590.29V606.39" stroke="#29756A"/>
<path d="M503.55,596.33V609.52" stroke="#29756A"/>
<path d="M505.67,592.81V607.11" stroke="#29756A"/>
<path d="M507.79,591.81V611.04" stroke="#29756A"/>
<path d="M509.91,591.75V610.39" stroke="#29756A"/>
<path d="M512.02,590.12V613.17" stroke="#29756A"/>
<path d="M514.14,599.41V610.74" stroke="#29756A"/>
<path d="M516.26,597.30V607.21" stroke="#29756A"/>
<path d="M518.38,596.91V606.31" stroke="#29756A"/>
<path d="M520.49,597.57V610.56" stroke="#29756A"/>
<path d="M522.61,601.29V609.74" stroke="#29756A"/>
<path d="M524.73,601.99V605.69" stroke="#29756A"/>
<path d="M526.85,596.98V605.90" stroke="#29756A"/>
<path d="M528.96,593.85V607.70" stroke="#29756A"/>
<path d="M531.08,596.38V606.59" stroke="#29756A"/>
<path d="M533.20,595.82V609.65" stroke="#29756A"/>
<path d="M535.32,598.69V609.82" stroke="#29756A"/>
<path d="M537.43,589.51V610.16" stroke="#29756A"/>
<path d="M539.55,586.49V603.01" stroke="#29756A"/>
<path d="M541.67,597.41V607.36" stroke="#29756A"/>
<path d="M543.79,602.83V611.71" stroke="#29756A"/>
<path d="M545.90,597.67V610.93" stroke="#29756A"/>
<path d="M548.02,592.54V610.43" stroke="#29756A"/>
<path d="M550.14,598.53V608.66" stroke="#29756A"/>
<path d="M552.26,590.52V605.36" stroke="#29756A"/>
<path d="M554.37,595.39V605.85" stroke="#29756A"/>
<path d="M556.49,594.77V609.90" stroke="#29756A"/>
<path d="M558.61,599.81V605.56" stroke="#29756A"/>
<path d="M560.72,600.35V606.88" stroke="#29756A"/>
<path d="M562.84,598.91V608.98" stroke="#29756A"/>
<path d="M564.96,597.85V605.73" stroke="#29756A"/>
<path d="M567.08,593.84V607.02" stroke="#29756A"/>
<path d="M569.19,594.00V606.95" stroke="#29756A"/>
<path d="M571.31,594.35V606.39" stroke="#29756A"/>
<path d="M573.43,594.66V607.18" stroke="#29756A"/>
<path d="M575.55,594.34V605.99" stroke="#29756A"/>
<path d="M577.66,598.05V609.69" stroke="#29756A"/>
<path d="M579.78,592.83V609.30" stroke="#29756A"/>
<path d="M581.90,592.39V602.53" stroke="#29756A"/>
<path d="M584.02,598.11V609.35" stroke="#29756A"/>
<path d="M586.13,595.08V606.10" stroke="#29756A"/>
<path d="M588.25,596.66V606.98" stroke="#29756A"/>
<path d="M590.37,598.65V608.48" stroke="#29756A"/>
<path d="M592.49,599.45V609.82" stroke="#29756A"/>
<path d="M594.60,595.77V607.15" stroke="#29756A"/>
<path d="M596.72,595.59V601.19" stroke="#29756A"/>
<path d="M598.84,600.43V606.73" stroke="#29756A"/>
<path d="M600.96,597.63V605.73" stroke="#29756A"/>
<path d="M603.07,601.14V605.03" stroke="#29756A"/>
<path d="M605.19,597.46V607.98" stroke="#29756A"/>
<path d="M607.31,599.39V604.85" stroke="#29756A"/>
<path d="M609.43,598.47V604.65" stroke="#29756A"/>
<path d="M611.54,597.99V603.39" stroke="#29756A"/>
<path d="M613.66,597.68V605.33" stroke="#29756A"/>
<path d="M615.78,598.23V606.75" stroke="#29756A"/>
<path d="M617.89,599.86V606.04" stroke="#29756A"/>
<path d="M620.01,599.02V602.22" stroke="#29756A"/>
<path d="M622.13,599.35V604.51" stroke="#29756A"/>
<path d="M624.25,598.45V605.19" stroke="#29756A"/>
<path d="M626.36,599.49V606.05" stroke="#29756A"/>
<path d="M628.48,599.09V604.96" stroke="#29756A"/>
<path d="M630.60,600.77V604.61" stroke="#29756A"/>
<path d="M632.72,598.67V602.68" stroke="#29756A"/>
<path d="M634.83,600.77V604.93" stroke="#29756A"/>
<path d="M636.95,600.42V603.79" stroke="#29756A"/>
<path d="M639.07,600.48V603.76" stroke="#29756A"/>
<path d="M641.19,600.08V603.96" stroke="#29756A"/>
<path d="M643.30,599.11V603.77" stroke="#29756A"/>
<path d="M645.42,598.71V605.99" stroke="#29756A"/>
<path d="M647.54,599.41V605.17" stroke="#29756A"/>
<path d="M649.66,599.71V605.58" stroke="#29756A"/>
<path d="M651.77,599.41V604.13" stroke="#29756A"/>
<path d="M653.89,598.62V602.09" stroke="#29756A"/>
<path d="M656.01,600.50V602.10" stroke="#29756A"/>
<path d="M658.13,601.27V603.96" stroke="#29756A"/>
<path d="M660.24,600.26V603.17" stroke="#29756A"/>
<path d="M662.36,599.51V603.73" stroke="#29756A"/>
<path d="M664.48,601.95V603.83" stroke="#29756A"/>
<path d="M666.60,600.74V602.15" stroke="#29756A"/>
<path d="M668.71,599.90V603.75" stroke="#29756A"/>
<path d="M670.83,600.04V602.73" stroke="#29756A"/>
<path d="M672.95,601.84V603.30" stroke="#29756A"/>
<path d="M675.07,601.46V603.47" stroke="#29756A"/>
<path d="M677.18,600.77V602.92" stroke="#29756A"/>
<path d="M679.30,601.79V602.54" stroke="#29756A"/>
<path d="M681.42,601.44V602.50" stroke="#29756A"/>
<path d="M683.53,601.71V602.29" stroke="#29756A"/>
<path d="M685.65,601.63V602.10" stroke="#29756A"/>
<path d="M687.77,601.82V602.17" stroke="#29756A"/>
<path d="M689.89,601.85V602.28" stroke="#29756A"/>
<path d="M692.00,601.64V602.13" stroke="#29756A"/>
<path d="M694.12,601.89V602.16" stroke="#29756A"/>
<path d="M696.24,601.87V602.11" stroke="#29756A"/>
<path d="M698.36,601.98V602.12" stroke="#29756A"/>
<path d="M700.47,601.98V602.08" stroke="#29756A"/>
<path d="M702.59,601.98V602.04" stroke="#29756A"/>
<path d="M704.71,601.95V602.01" stroke="#29756A"/>
<path d="M706.83,601.99V602.02" stroke="#29756A"/>
<path d="M708.94,602.00V602.00" stroke="#29756A"/>
<path d="M711.06,602.00V602.00" stroke="#29756A"/>
<path d="M713.18,602.00V602.00" stroke="#29756A"/>
<text x="205" y="653" font-size="14">Cushioned snow compression with a light trailing swish</text>
<text x="40" y="700" font-size="20" font-weight="700">snow-02</text>
<text x="40" y="727" font-size="12">280 ms</text>
<line x1="205" x2="1160" y1="718" y2="718" stroke="#D8D2C3"/>
<path d="M205.00,717.92V718.06" stroke="#29756A"/>
<path d="M207.12,717.71V718.05" stroke="#29756A"/>
<path d="M209.23,717.54V718.45" stroke="#29756A"/>
<path d="M211.35,716.75V719.42" stroke="#29756A"/>
<path d="M213.47,716.05V720.90" stroke="#29756A"/>
<path d="M215.59,715.35V722.05" stroke="#29756A"/>
<path d="M217.70,717.73V722.68" stroke="#29756A"/>
<path d="M219.82,714.41V720.22" stroke="#29756A"/>
<path d="M221.94,711.83V720.61" stroke="#29756A"/>
<path d="M224.06,713.88V722.50" stroke="#29756A"/>
<path d="M226.17,712.91V722.99" stroke="#29756A"/>
<path d="M228.29,715.28V721.60" stroke="#29756A"/>
<path d="M230.41,716.04V721.31" stroke="#29756A"/>
<path d="M232.53,716.72V721.52" stroke="#29756A"/>
<path d="M234.64,717.85V722.09" stroke="#29756A"/>
<path d="M236.76,714.63V723.04" stroke="#29756A"/>
<path d="M238.88,709.10V719.23" stroke="#29756A"/>
<path d="M241.00,711.13V724.39" stroke="#29756A"/>
<path d="M243.11,712.17V722.80" stroke="#29756A"/>
<path d="M245.23,708.00V723.47" stroke="#29756A"/>
<path d="M247.35,714.00V727.24" stroke="#29756A"/>
<path d="M249.47,714.24V723.54" stroke="#29756A"/>
<path d="M251.58,707.60V723.12" stroke="#29756A"/>
<path d="M253.70,711.05V725.63" stroke="#29756A"/>
<path d="M255.82,707.03V724.55" stroke="#29756A"/>
<path d="M257.94,711.49V724.90" stroke="#29756A"/>
<path d="M260.05,707.48V724.04" stroke="#29756A"/>
<path d="M262.17,706.52V719.68" stroke="#29756A"/>
<path d="M264.29,713.23V731.04" stroke="#29756A"/>
<path d="M266.40,719.80V726.89" stroke="#29756A"/>
<path d="M268.52,703.55V728.10" stroke="#29756A"/>
<path d="M270.64,712.70V725.24" stroke="#29756A"/>
<path d="M272.76,711.07V723.83" stroke="#29756A"/>
<path d="M274.87,714.82V721.81" stroke="#29756A"/>
<path d="M276.99,713.24V730.29" stroke="#29756A"/>
<path d="M279.11,704.93V733.93" stroke="#29756A"/>
<path d="M281.23,703.02V730.76" stroke="#29756A"/>
<path d="M283.34,707.97V724.07" stroke="#29756A"/>
<path d="M285.46,712.30V720.85" stroke="#29756A"/>
<path d="M287.58,699.80V718.30" stroke="#29756A"/>
<path d="M289.70,712.18V723.80" stroke="#29756A"/>
<path d="M291.81,717.60V726.50" stroke="#29756A"/>
<path d="M293.93,704.77V725.86" stroke="#29756A"/>
<path d="M296.05,715.90V733.80" stroke="#29756A"/>
<path d="M298.17,701.78V732.12" stroke="#29756A"/>
<path d="M300.28,708.66V730.10" stroke="#29756A"/>
<path d="M302.40,709.59V726.02" stroke="#29756A"/>
<path d="M304.52,706.80V728.24" stroke="#29756A"/>
<path d="M306.64,699.51V726.62" stroke="#29756A"/>
<path d="M308.75,711.20V727.90" stroke="#29756A"/>
<path d="M310.87,710.97V728.47" stroke="#29756A"/>
<path d="M312.99,699.83V726.59" stroke="#29756A"/>
<path d="M315.11,704.53V723.84" stroke="#29756A"/>
<path d="M317.22,705.83V729.46" stroke="#29756A"/>
<path d="M319.34,699.73V719.24" stroke="#29756A"/>
<path d="M321.46,708.77V740.93" stroke="#29756A"/>
<path d="M323.57,703.01V728.89" stroke="#29756A"/>
<path d="M325.69,703.97V731.96" stroke="#29756A"/>
<path d="M327.81,696.83V731.05" stroke="#29756A"/>
<path d="M329.93,686.43V729.84" stroke="#29756A"/>
<path d="M332.04,706.76V725.74" stroke="#29756A"/>
<path d="M334.16,703.25V735.61" stroke="#29756A"/>
<path d="M336.28,706.00V731.99" stroke="#29756A"/>
<path d="M338.40,711.32V741.65" stroke="#29756A"/>
<path d="M340.51,712.16V726.68" stroke="#29756A"/>
<path d="M342.63,688.55V727.84" stroke="#29756A"/>
<path d="M344.75,697.22V730.13" stroke="#29756A"/>
<path d="M346.87,697.94V726.35" stroke="#29756A"/>
<path d="M348.98,704.27V729.85" stroke="#29756A"/>
<path d="M351.10,695.30V732.65" stroke="#29756A"/>
<path d="M353.22,714.77V736.56" stroke="#29756A"/>
<path d="M355.34,719.45V738.06" stroke="#29756A"/>
<path d="M357.45,693.80V728.82" stroke="#29756A"/>
<path d="M359.57,700.32V746.35" stroke="#29756A"/>
<path d="M361.69,699.47V739.35" stroke="#29756A"/>
<path d="M363.81,699.10V738.58" stroke="#29756A"/>
<path d="M365.92,707.00V735.46" stroke="#29756A"/>
<path d="M368.04,704.32V721.93" stroke="#29756A"/>
<path d="M370.16,707.24V729.87" stroke="#29756A"/>
<path d="M372.28,701.92V740.09" stroke="#29756A"/>
<path d="M374.39,706.42V732.67" stroke="#29756A"/>
<path d="M376.51,711.76V722.72" stroke="#29756A"/>
<path d="M378.63,710.73V734.44" stroke="#29756A"/>
<path d="M380.75,700.63V724.16" stroke="#29756A"/>
<path d="M382.86,696.81V731.10" stroke="#29756A"/>
<path d="M384.98,707.64V743.66" stroke="#29756A"/>
<path d="M387.10,703.19V716.36" stroke="#29756A"/>
<path d="M389.21,698.18V727.26" stroke="#29756A"/>
<path d="M391.33,719.92V732.78" stroke="#29756A"/>
<path d="M393.45,701.03V737.29" stroke="#29756A"/>
<path d="M395.57,704.58V727.20" stroke="#29756A"/>
<path d="M397.68,705.92V729.83" stroke="#29756A"/>
<path d="M399.80,706.23V726.94" stroke="#29756A"/>
<path d="M401.92,705.84V740.22" stroke="#29756A"/>
<path d="M404.04,711.83V738.72" stroke="#29756A"/>
<path d="M406.15,704.97V738.58" stroke="#29756A"/>
<path d="M408.27,697.69V735.78" stroke="#29756A"/>
<path d="M410.39,703.83V725.70" stroke="#29756A"/>
<path d="M412.51,709.86V723.35" stroke="#29756A"/>
<path d="M414.62,701.88V724.11" stroke="#29756A"/>
<path d="M416.74,701.07V733.17" stroke="#29756A"/>
<path d="M418.86,698.07V725.08" stroke="#29756A"/>
<path d="M420.98,704.93V732.31" stroke="#29756A"/>
<path d="M423.09,711.70V726.37" stroke="#29756A"/>
<path d="M425.21,706.76V717.47" stroke="#29756A"/>
<path d="M427.33,707.77V724.89" stroke="#29756A"/>
<path d="M429.45,716.12V726.83" stroke="#29756A"/>
<path d="M431.56,698.56V719.88" stroke="#29756A"/>
<path d="M433.68,713.52V740.84" stroke="#29756A"/>
<path d="M435.80,715.81V726.25" stroke="#29756A"/>
<path d="M437.92,704.05V736.55" stroke="#29756A"/>
<path d="M440.03,703.94V721.18" stroke="#29756A"/>
<path d="M442.15,698.63V722.88" stroke="#29756A"/>
<path d="M444.27,706.91V736.12" stroke="#29756A"/>
<path d="M446.38,711.46V729.61" stroke="#29756A"/>
<path d="M448.50,714.62V727.34" stroke="#29756A"/>
<path d="M450.62,690.92V734.80" stroke="#29756A"/>
<path d="M452.74,702.38V724.51" stroke="#29756A"/>
<path d="M454.85,712.40V733.97" stroke="#29756A"/>
<path d="M456.97,711.55V723.70" stroke="#29756A"/>
<path d="M459.09,708.69V722.75" stroke="#29756A"/>
<path d="M461.21,707.31V716.50" stroke="#29756A"/>
<path d="M463.32,710.97V728.75" stroke="#29756A"/>
<path d="M465.44,706.77V733.33" stroke="#29756A"/>
<path d="M467.56,709.36V728.57" stroke="#29756A"/>
<path d="M469.68,713.89V726.71" stroke="#29756A"/>
<path d="M471.79,709.56V723.92" stroke="#29756A"/>
<path d="M473.91,712.63V722.36" stroke="#29756A"/>
<path d="M476.03,712.54V728.34" stroke="#29756A"/>
<path d="M478.15,714.41V728.12" stroke="#29756A"/>
<path d="M480.26,707.51V720.20" stroke="#29756A"/>
<path d="M482.38,715.06V733.22" stroke="#29756A"/>
<path d="M484.50,710.44V724.52" stroke="#29756A"/>
<path d="M486.62,707.01V728.76" stroke="#29756A"/>
<path d="M488.73,708.01V719.77" stroke="#29756A"/>
<path d="M490.85,707.33V734.48" stroke="#29756A"/>
<path d="M492.97,706.70V723.92" stroke="#29756A"/>
<path d="M495.09,710.64V723.71" stroke="#29756A"/>
<path d="M497.20,706.44V721.18" stroke="#29756A"/>
<path d="M499.32,714.42V729.36" stroke="#29756A"/>
<path d="M501.44,710.89V726.97" stroke="#29756A"/>
<path d="M503.55,712.74V728.02" stroke="#29756A"/>
<path d="M505.67,711.29V723.23" stroke="#29756A"/>
<path d="M507.79,711.26V721.83" stroke="#29756A"/>
<path d="M509.91,714.54V729.42" stroke="#29756A"/>
<path d="M512.02,709.41V723.60" stroke="#29756A"/>
<path d="M514.14,706.80V719.38" stroke="#29756A"/>
<path d="M516.26,709.21V728.17" stroke="#29756A"/>
<path d="M518.38,715.15V727.88" stroke="#29756A"/>
<path d="M520.49,706.30V724.62" stroke="#29756A"/>
<path d="M522.61,709.06V725.99" stroke="#29756A"/>
<path d="M524.73,716.25V724.95" stroke="#29756A"/>
<path d="M526.85,706.41V721.40" stroke="#29756A"/>
<path d="M528.96,710.23V727.53" stroke="#29756A"/>
<path d="M531.08,714.80V722.52" stroke="#29756A"/>
<path d="M533.20,713.06V728.99" stroke="#29756A"/>
<path d="M535.32,707.55V729.02" stroke="#29756A"/>
<path d="M537.43,706.26V723.44" stroke="#29756A"/>
<path d="M539.55,711.99V724.90" stroke="#29756A"/>
<path d="M541.67,711.27V734.33" stroke="#29756A"/>
<path d="M543.79,704.04V722.46" stroke="#29756A"/>
<path d="M545.90,712.44V724.13" stroke="#29756A"/>
<path d="M548.02,707.18V720.38" stroke="#29756A"/>
<path d="M550.14,717.07V726.90" stroke="#29756A"/>
<path d="M552.26,708.11V728.62" stroke="#29756A"/>
<path d="M554.37,709.20V723.08" stroke="#29756A"/>
<path d="M556.49,714.06V722.69" stroke="#29756A"/>
<path d="M558.61,709.95V730.50" stroke="#29756A"/>
<path d="M560.72,706.51V718.85" stroke="#29756A"/>
<path d="M562.84,712.21V724.20" stroke="#29756A"/>
<path d="M564.96,714.71V729.07" stroke="#29756A"/>
<path d="M567.08,708.35V727.47" stroke="#29756A"/>
<path d="M569.19,708.03V719.59" stroke="#29756A"/>
<path d="M571.31,709.95V721.88" stroke="#29756A"/>
<path d="M573.43,708.69V722.71" stroke="#29756A"/>
<path d="M575.55,709.88V723.28" stroke="#29756A"/>
<path d="M577.66,711.22V722.44" stroke="#29756A"/>
<path d="M579.78,712.97V724.25" stroke="#29756A"/>
<path d="M581.90,712.02V722.00" stroke="#29756A"/>
<path d="M584.02,711.76V725.31" stroke="#29756A"/>
<path d="M586.13,713.26V726.25" stroke="#29756A"/>
<path d="M588.25,711.85V723.85" stroke="#29756A"/>
<path d="M590.37,707.76V723.20" stroke="#29756A"/>
<path d="M592.49,707.14V727.81" stroke="#29756A"/>
<path d="M594.60,714.69V724.26" stroke="#29756A"/>
<path d="M596.72,708.64V723.69" stroke="#29756A"/>
<path d="M598.84,713.34V723.50" stroke="#29756A"/>
<path d="M600.96,709.28V721.15" stroke="#29756A"/>
<path d="M603.07,711.70V727.86" stroke="#29756A"/>
<path d="M605.19,712.48V731.40" stroke="#29756A"/>
<path d="M607.31,707.81V727.40" stroke="#29756A"/>
<path d="M609.43,707.89V723.21" stroke="#29756A"/>
<path d="M611.54,709.23V721.13" stroke="#29756A"/>
<path d="M613.66,711.97V727.63" stroke="#29756A"/>
<path d="M615.78,713.99V723.04" stroke="#29756A"/>
<path d="M617.89,711.86V726.07" stroke="#29756A"/>
<path d="M620.01,708.72V727.19" stroke="#29756A"/>
<path d="M622.13,713.66V723.17" stroke="#29756A"/>
<path d="M624.25,710.93V722.40" stroke="#29756A"/>
<path d="M626.36,708.72V729.42" stroke="#29756A"/>
<path d="M628.48,711.35V725.33" stroke="#29756A"/>
<path d="M630.60,708.88V720.23" stroke="#29756A"/>
<path d="M632.72,714.02V722.86" stroke="#29756A"/>
<path d="M634.83,711.16V724.95" stroke="#29756A"/>
<path d="M636.95,715.67V727.11" stroke="#29756A"/>
<path d="M639.07,709.45V723.45" stroke="#29756A"/>
<path d="M641.19,709.40V722.95" stroke="#29756A"/>
<path d="M643.30,706.81V723.93" stroke="#29756A"/>
<path d="M645.42,712.36V724.45" stroke="#29756A"/>
<path d="M647.54,710.62V725.36" stroke="#29756A"/>
<path d="M649.66,713.43V725.16" stroke="#29756A"/>
<path d="M651.77,715.98V725.98" stroke="#29756A"/>
<path d="M653.89,715.25V724.48" stroke="#29756A"/>
<path d="M656.01,712.95V719.89" stroke="#29756A"/>
<path d="M658.13,716.73V722.38" stroke="#29756A"/>
<path d="M660.24,711.85V720.02" stroke="#29756A"/>
<path d="M662.36,716.13V721.04" stroke="#29756A"/>
<path d="M664.48,714.16V721.19" stroke="#29756A"/>
<path d="M666.60,711.96V720.39" stroke="#29756A"/>
<path d="M668.71,715.75V727.45" stroke="#29756A"/>
<path d="M670.83,713.68V719.36" stroke="#29756A"/>
<path d="M672.95,715.21V723.98" stroke="#29756A"/>
<path d="M675.07,712.27V718.96" stroke="#29756A"/>
<path d="M677.18,713.23V724.05" stroke="#29756A"/>
<path d="M679.30,713.57V721.08" stroke="#29756A"/>
<path d="M681.42,714.88V717.79" stroke="#29756A"/>
<path d="M683.53,716.12V720.09" stroke="#29756A"/>
<path d="M685.65,718.59V721.96" stroke="#29756A"/>
<path d="M687.77,715.09V720.35" stroke="#29756A"/>
<path d="M689.89,715.75V722.82" stroke="#29756A"/>
<path d="M692.00,714.65V719.71" stroke="#29756A"/>
<path d="M694.12,714.39V719.44" stroke="#29756A"/>
<path d="M696.24,716.47V722.00" stroke="#29756A"/>
<path d="M698.36,713.73V719.82" stroke="#29756A"/>
<path d="M700.47,715.27V720.20" stroke="#29756A"/>
<path d="M702.59,715.79V722.13" stroke="#29756A"/>
<path d="M704.71,714.97V720.86" stroke="#29756A"/>
<path d="M706.83,714.13V720.11" stroke="#29756A"/>
<path d="M708.94,715.67V719.25" stroke="#29756A"/>
<path d="M711.06,717.80V719.62" stroke="#29756A"/>
<path d="M713.18,717.80V719.83" stroke="#29756A"/>
<path d="M715.30,716.21V717.55" stroke="#29756A"/>
<path d="M717.41,716.97V719.28" stroke="#29756A"/>
<path d="M719.53,716.73V720.10" stroke="#29756A"/>
<path d="M721.65,715.29V719.30" stroke="#29756A"/>
<path d="M723.77,715.62V720.69" stroke="#29756A"/>
<path d="M725.88,717.17V719.21" stroke="#29756A"/>
<path d="M728.00,716.67V718.75" stroke="#29756A"/>
<path d="M730.12,716.48V718.98" stroke="#29756A"/>
<path d="M732.24,717.16V718.66" stroke="#29756A"/>
<path d="M734.35,716.29V719.25" stroke="#29756A"/>
<path d="M736.47,716.72V719.34" stroke="#29756A"/>
<path d="M738.59,716.90V719.12" stroke="#29756A"/>
<path d="M740.70,716.97V718.78" stroke="#29756A"/>
<path d="M742.82,717.01V719.03" stroke="#29756A"/>
<path d="M744.94,717.71V719.44" stroke="#29756A"/>
<path d="M747.06,716.33V718.12" stroke="#29756A"/>
<path d="M749.17,717.50V718.59" stroke="#29756A"/>
<path d="M751.29,717.36V718.35" stroke="#29756A"/>
<path d="M753.41,717.41V719.01" stroke="#29756A"/>
<path d="M755.53,717.73V718.56" stroke="#29756A"/>
<path d="M757.64,717.35V718.14" stroke="#29756A"/>
<path d="M759.76,717.65V718.33" stroke="#29756A"/>
<path d="M761.88,717.82V718.32" stroke="#29756A"/>
<path d="M764.00,717.64V718.19" stroke="#29756A"/>
<path d="M766.11,717.66V718.25" stroke="#29756A"/>
<path d="M768.23,717.85V718.35" stroke="#29756A"/>
<path d="M770.35,717.78V718.30" stroke="#29756A"/>
<path d="M772.47,717.81V718.12" stroke="#29756A"/>
<path d="M774.58,717.89V718.05" stroke="#29756A"/>
<path d="M776.70,717.94V718.23" stroke="#29756A"/>
<path d="M778.82,717.96V718.10" stroke="#29756A"/>
<path d="M780.94,717.96V718.06" stroke="#29756A"/>
<path d="M783.05,717.92V718.05" stroke="#29756A"/>
<path d="M785.17,717.98V718.04" stroke="#29756A"/>
<path d="M787.29,717.98V718.02" stroke="#29756A"/>
<path d="M789.41,717.99V718.03" stroke="#29756A"/>
<path d="M791.52,717.99V718.00" stroke="#29756A"/>
<path d="M793.64,717.99V718.00" stroke="#29756A"/>
<path d="M795.76,718.00V718.00" stroke="#29756A"/>
<path d="M797.87,718.00V718.00" stroke="#29756A"/>
<text x="205" y="769" font-size="14">A deeper snow brush with a second soft crunch</text>
<text x="40" y="835" font-size="14">Static validation is not a substitute for listening in the game mix.</text></g></svg>